<svg width="28" height="30" viewBox="0 0 28 30" fill="none" xmlns="http://www.w3.org/2000/svg">
<path d="M22.4474 8.16614C24.1828 8.16614 25.4121 8.62699 26.1974 9.55481C26.9741 10.4726 27.2687 11.7937 27.2687 13.4073C27.2687 14.3716 27.2469 15.3298 27.2248 16.213C27.2027 17.0979 27.1808 17.9053 27.1808 18.5743C27.1809 19.1479 27.2237 19.796 27.2678 20.3409C27.3105 20.8695 27.3576 21.3301 27.3576 21.4884C27.3576 21.7026 27.3105 21.9101 27.175 22.0773C27.0414 22.242 26.8515 22.3294 26.6398 22.3712L26.6408 22.3722C26.6374 22.373 26.6335 22.3733 26.6301 22.3741C26.6291 22.3743 26.6281 22.3749 26.6271 22.3751L26.6262 22.3741C26.268 22.4572 25.5135 22.5076 24.7433 22.5372C23.9498 22.5678 23.1016 22.5782 22.5578 22.5782C20.8852 22.5782 19.581 22.2548 18.6916 21.545C17.79 20.8256 17.3606 19.7479 17.3605 18.3536C17.3605 16.7549 18.0089 15.5812 19.1008 14.7599C20.1786 13.9493 21.673 13.4922 23.3605 13.2687C23.6186 13.2283 23.7493 13.1602 23.8166 13.0929C23.8765 13.033 23.9182 12.9411 23.9182 12.7667C23.9181 12.2226 23.7853 11.8549 23.5412 11.6193C23.295 11.3816 22.8857 11.2296 22.2267 11.2296C21.165 11.2296 20.1701 11.698 19.3039 12.5431L19.3029 12.5421C19.1507 12.6933 18.9755 12.7754 18.7824 12.7755C18.6261 12.7755 18.5 12.7225 18.3879 12.6368L18.2795 12.5402C17.9397 12.2001 17.6701 11.6003 17.6701 10.9786C17.6701 10.1543 18.1951 9.44349 19.0305 8.95227C19.8669 8.46043 21.0439 8.16614 22.4474 8.16614ZM23.6838 15.8888C22.7843 15.8888 22.0341 16.1006 21.5168 16.4718C21.0082 16.8368 20.7111 17.3631 20.7111 18.0441C20.7111 18.3406 20.7609 18.5654 20.8459 18.7384C20.9294 18.9083 21.0542 19.0425 21.2307 19.1486C21.5983 19.3695 22.1891 19.4708 23.0656 19.4708C23.5365 19.4708 23.7301 19.387 23.8156 19.3058C23.8942 19.2312 23.9406 19.102 23.9406 18.8165V16.3878C23.9406 16.0983 23.9084 15.9825 23.8781 15.9366C23.8719 15.9272 23.854 15.8888 23.6838 15.8888ZM9.08612 8.96399L9.07831 8.9718C8.3204 9.66741 7.71557 10.7942 7.29999 12.0001C6.88565 13.2025 6.67108 14.448 6.67108 15.3507C6.67109 15.3535 6.67198 15.3561 6.67206 15.3585C6.72666 15.3512 6.82061 15.3294 6.97479 15.2775C7.14238 15.2211 7.37942 15.1345 7.6369 15.0519C8.16689 14.8818 8.86234 14.7028 9.70331 14.6798H9.71014L10.3117 14.6866C10.4899 14.6905 10.6472 14.6952 10.7863 14.6993C11.0603 14.7075 11.2519 14.711 11.3996 14.7023C11.4447 14.6946 11.4678 14.6862 11.4777 14.6808C11.4852 14.6767 11.4859 14.6749 11.4865 14.674C11.489 14.6699 11.4959 14.6553 11.5021 14.6212C11.5087 14.5853 11.5129 14.5358 11.5129 14.4669C11.5128 13.4972 11.2428 12.4016 10.8322 11.3995C10.4213 10.3967 9.88 9.512 9.3576 8.95813L9.33319 8.92883C9.29269 8.87217 9.26338 8.83771 9.24237 8.81653C9.20759 8.84409 9.16241 8.8877 9.08612 8.96399ZM6.88788 21.9054C6.87851 22.0162 6.85087 22.1344 6.77753 22.2404C6.70085 22.3511 6.59425 22.4204 6.47577 22.4659L6.35468 22.504C6.34557 22.5063 6.33565 22.5086 6.32635 22.5099C5.99814 22.5567 5.51914 22.5782 5.00702 22.5782C4.65578 22.5782 4.29317 22.5786 3.95135 22.5558V22.5548C3.76774 22.5433 3.55931 22.5144 3.39178 22.3888C3.20931 22.2519 3.12837 22.0454 3.10175 21.8058V21.8029C3.01837 20.9857 2.95974 20.1428 2.93573 19.2931L2.92401 18.4415C2.902 13.4884 4.07732 8.15947 8.58417 5.05676L8.59882 5.04797C8.82874 4.91004 9.03706 4.80969 9.2912 4.80969C9.50831 4.80976 9.72128 4.87684 9.94159 5.06458L10.3195 5.36047C14.1408 8.46803 15.4377 12.8994 15.4377 18.3751C15.4377 19.4427 15.3927 20.5559 15.2814 21.7355L15.2805 21.7413C15.2521 21.9826 15.1595 22.1798 14.9816 22.3156C14.8175 22.4407 14.6139 22.4863 14.425 22.5099L14.423 22.5109C14.0366 22.5563 13.6504 22.5782 13.2209 22.5782C12.9715 22.5782 12.7329 22.5669 12.5217 22.5529L11.9855 22.5118C11.9764 22.5111 11.9673 22.5096 11.9582 22.5079C11.7983 22.4789 11.6397 22.4126 11.5266 22.2726C11.415 22.1344 11.3801 21.9649 11.3801 21.798C11.3801 21.6351 11.4061 21.4512 11.4396 21.2589C11.4725 21.0705 11.5195 20.8392 11.5617 20.6085C11.6487 20.1328 11.7336 19.566 11.7336 18.9054C11.7336 18.3636 11.5812 18.0466 11.3146 17.8497C11.0281 17.6381 10.555 17.5226 9.8205 17.5226C8.8977 17.5226 8.06066 17.6898 7.46503 18.0255C6.88173 18.3543 6.53934 18.8353 6.53925 19.5011C6.53925 19.934 6.61669 20.3465 6.70135 20.7316C6.78248 21.1006 6.87948 21.4796 6.89178 21.7872L6.89276 21.798L6.88788 21.9054Z" stroke="black" stroke-width="0.546253" stroke-linejoin="round"/>
</svg>
