<svg width="28" height="30" viewBox="0 0 28 30" fill="none" xmlns="http://www.w3.org/2000/svg">
<path d="M22.4474 8.31458C24.1577 8.31458 25.3371 8.76785 26.0842 9.65051C26.8272 10.5286 27.1213 11.8067 27.1213 13.4073C27.1213 14.3695 27.0984 15.3259 27.0764 16.2091C27.0543 17.0931 27.0324 17.9029 27.0324 18.5743C27.0324 19.1541 27.0762 19.8069 27.1203 20.3527C27.1638 20.8908 27.2091 21.338 27.2092 21.4884C27.2092 21.6823 27.1667 21.8526 27.0598 21.9845C26.9534 22.1154 26.7971 22.1907 26.6047 22.2277L26.6057 22.2286C26.2707 22.3094 25.5226 22.3586 24.7375 22.3888C23.9462 22.4192 23.1 22.4308 22.5578 22.4308C20.9002 22.4308 19.636 22.1084 18.7844 21.4288C17.9272 20.7449 17.5091 19.7161 17.509 18.3536C17.509 16.8018 18.1347 15.6715 19.1896 14.8781C20.2378 14.0898 21.7026 13.6383 23.3781 13.4161L23.5646 13.3781C23.7329 13.334 23.8461 13.2723 23.9211 13.1974C24.0174 13.1011 24.0666 12.9663 24.0666 12.7667C24.0665 12.2004 23.9276 11.7868 23.6437 11.5128C23.3589 11.238 22.9054 11.0812 22.2267 11.0812C21.1181 11.0812 20.0878 11.5709 19.2004 12.4366C19.0709 12.5657 18.9307 12.627 18.7824 12.6271C18.666 12.6271 18.5705 12.5888 18.4777 12.5177L18.3849 12.4357C18.0737 12.1244 17.8186 11.5626 17.8185 10.9786C17.8185 10.2241 18.2982 9.55401 19.1057 9.07922C19.9136 8.6043 21.0629 8.31458 22.4474 8.31458ZM23.6838 15.7404C22.7631 15.7404 21.9795 15.9572 21.4299 16.3517C20.8844 16.7432 20.5627 17.3134 20.5627 18.0441C20.5627 18.3562 20.6146 18.6052 20.7121 18.8038C20.809 19.001 20.9547 19.1559 21.1535 19.2755C21.5582 19.5189 22.1854 19.6193 23.0656 19.6193C23.5446 19.6193 23.7892 19.5357 23.9182 19.4132C24.0437 19.2937 24.0891 19.1086 24.0891 18.8165V16.3878C24.089 16.1002 24.0592 15.9425 24.0021 15.8556C23.9559 15.7855 23.8756 15.7404 23.6838 15.7404ZM9.24628 8.65247C9.22855 8.65256 9.20465 8.65903 9.16132 8.69153C9.11497 8.72637 9.06107 8.77908 8.98163 8.85852L8.97772 8.86243C8.19377 9.58197 7.57857 10.7357 7.15936 11.9523C6.74077 13.1671 6.52362 14.4287 6.52362 15.3507C6.52369 15.4265 6.54393 15.4645 6.56073 15.4825C6.5772 15.5 6.60296 15.5127 6.64081 15.5128C6.7161 15.5128 6.83748 15.4801 7.02167 15.4181C7.19617 15.3594 7.4241 15.2752 7.68182 15.1925C8.20429 15.0249 8.88525 14.8508 9.70721 14.8282H9.71014L10.3078 14.8341C10.4856 14.8379 10.643 14.8427 10.7824 14.8468C11.0583 14.855 11.2591 14.8606 11.4162 14.8507C11.5374 14.8316 11.5856 14.794 11.6115 14.7531C11.6433 14.7025 11.6613 14.6181 11.6613 14.4669C11.6613 13.4723 11.3843 12.3568 10.9689 11.3429C10.5534 10.3288 10.0034 9.42731 9.46503 8.85657L9.45428 8.8429C9.40037 8.76742 9.35829 8.71733 9.32147 8.68665C9.28714 8.65805 9.26407 8.65247 9.24628 8.65247ZM6.74042 21.8937C6.73234 21.9882 6.70912 22.0778 6.65546 22.1554C6.58178 22.2618 6.46629 22.3235 6.31854 22.3605L6.30585 22.3634C5.98799 22.4088 5.51689 22.4308 5.00702 22.4308C4.65473 22.4308 4.29713 22.4307 3.96112 22.4083V22.4073C3.7815 22.3961 3.61119 22.3684 3.48065 22.2706C3.34325 22.1676 3.27337 22.0066 3.24921 21.7892V21.7882C3.16614 20.9742 3.10807 20.135 3.08417 19.2892L3.07147 18.4415C3.04942 13.5043 4.22255 8.23937 8.66815 5.17883L8.67401 5.17493L8.73846 5.28137L8.67499 5.17493C8.8999 5.03999 9.07912 4.95813 9.2912 4.95813C9.47428 4.9582 9.65558 5.01257 9.85175 5.18176L10.2248 5.47473C13.9989 8.54339 15.2892 12.9224 15.2892 18.3751C15.2892 19.4384 15.2448 20.5464 15.134 21.7208V21.7238C15.109 21.936 15.0301 22.0928 14.8918 22.1984C14.7598 22.2989 14.5885 22.3406 14.4064 22.3634H14.4055C14.0252 22.4081 13.6449 22.4308 13.2209 22.4308C12.7291 22.4308 12.281 22.3862 11.9973 22.3644L11.9846 22.3634V22.3624C11.8455 22.3371 11.725 22.2828 11.6418 22.1798C11.5593 22.0777 11.5285 21.9462 11.5285 21.798C11.5285 21.6486 11.5519 21.4753 11.5851 21.2843C11.6181 21.095 11.664 20.8714 11.7072 20.6349C11.7949 20.1553 11.882 19.5788 11.882 18.9054C11.882 18.3341 11.7191 17.9644 11.4025 17.7306C11.0768 17.4901 10.5638 17.3741 9.8205 17.3741C8.88331 17.3742 8.01858 17.5439 7.39276 17.8966C6.77252 18.2462 6.3909 18.7713 6.39081 19.5011C6.39081 19.9507 6.47167 20.3765 6.55682 20.7638C6.64033 21.1436 6.73271 21.5027 6.74432 21.7931V21.798L6.74042 21.8937Z" fill="black" stroke="black" stroke-width="0.25" stroke-linejoin="round"/>
</svg>
