<svg width="30" height="30" viewBox="0 0 30 30" fill="none" xmlns="http://www.w3.org/2000/svg">
<path d="M23.8877 9.93701C23.9016 9.93957 23.9153 9.94447 23.9277 9.95166L26.1592 11.2407H26.1602L27.3604 11.8403L27.3623 11.8423L27.5713 11.9565C27.7679 12.0696 27.9263 12.1776 28.0439 12.2798C28.1943 12.4104 28.3057 12.5561 28.3057 12.7144C28.3056 12.7635 28.2833 12.8109 28.2666 12.8423C28.2467 12.8797 28.2186 12.9231 28.1846 12.9712C28.1503 13.0196 28.1078 13.0752 28.0576 13.1382L27.8838 13.3491C27.6266 13.6518 27.5105 13.8878 27.498 14.062L27.3369 18.2124C27.337 18.2342 27.3387 18.2536 27.3398 18.271L27.3545 18.2573C27.3902 18.2218 27.4437 18.2108 27.4902 18.23C27.5369 18.2493 27.5674 18.2956 27.5674 18.3462C27.5675 18.4209 27.5976 18.514 27.6738 18.6284C27.7309 18.714 27.8111 18.8076 27.917 18.9087L28.0322 19.0132L28.0342 19.0151L28.4307 19.3882C28.4776 19.4351 28.5165 19.4757 28.5459 19.5093C28.5728 19.54 28.6006 19.5739 28.6162 19.605C28.6429 19.6583 28.6281 19.7237 28.5811 19.7603L26.7109 21.2144C26.6719 21.2444 26.6186 21.2485 26.5752 21.2251C25.594 20.6967 25.0496 20.0527 25.0127 19.2837L24.7676 19.1831C24.6297 19.309 24.3772 19.519 24.0117 19.8062L24.0098 19.8071C23.5774 20.1314 22.9757 20.5633 22.2061 21.1021C22.185 21.1168 22.1594 21.1245 22.1338 21.1245C21.2151 21.1244 20.3597 20.5577 19.5645 19.4819V19.4829C18.8445 18.5282 18.4775 17.5633 18.4775 16.5913C18.4776 15.1867 19.0081 13.9554 20.0605 12.9028L20.3564 12.6245C20.5935 12.4107 20.9107 12.1396 21.3076 11.812L21.9629 11.2778C22.4784 10.8546 22.8905 10.5324 23.1973 10.311C23.3506 10.2004 23.4803 10.1136 23.584 10.0522C23.6824 9.994 23.773 9.94897 23.8447 9.93701H23.8877ZM22.75 12.562C22.5871 12.5643 22.4087 12.6444 22.2139 12.8286C22.016 13.0158 21.8097 13.3029 21.5977 13.6968V13.6978C21.2338 14.365 21.0586 14.9359 21.0586 15.4146C21.0586 15.9801 21.2274 16.5257 21.5693 17.0532L21.7266 17.2778L21.7305 17.2837H21.7295C22.1915 17.9693 22.7197 18.2896 23.3115 18.2896C23.5796 18.2895 23.8913 18.212 24.249 18.0483L24.3867 17.9751C24.6819 17.8019 24.8016 17.6077 24.8018 17.3999V13.8569C24.615 13.6937 24.2818 13.4471 23.7949 13.1177H23.7939C23.527 12.9346 23.3053 12.7965 23.127 12.7036C22.9466 12.6097 22.8235 12.5683 22.75 12.562ZM6.79004 7.41553C6.77095 7.80211 6.68141 8.69934 6.51855 10.0972L6.51758 10.1089L6.39453 10.0835L6.5166 10.1089L6.28906 11.1792V12.4048H12.0625V9.89893C12.0625 9.14525 11.7992 8.31829 11.2617 7.41553H6.79004ZM14.9033 14.7378C14.9072 14.9872 14.9132 15.2655 14.9209 15.5728L14.9902 17.7163L15.0264 18.1489C15.1451 19.1545 15.4959 20.1204 16.0791 21.0483C16.1033 21.0869 16.104 21.1364 16.082 21.1763C16.06 21.2158 16.018 21.2407 15.9727 21.2407H8.40234C8.33353 21.2406 8.27755 21.1845 8.27734 21.1157V20.6538C8.27734 20.6202 8.29137 20.5875 8.31543 20.564C8.33943 20.5407 8.37183 20.5281 8.40527 20.5288L9.4209 20.5522L9.77441 20.5532C10.5706 20.5386 11.1649 20.403 11.5693 20.1597C12.0208 19.888 12.247 19.4751 12.2471 18.8999V14.9399H5.75488C5.74831 15.4513 5.70404 16.0077 5.61816 16.6089C5.54066 17.2591 5.41673 17.9775 5.24707 18.7642V18.7661C5.02292 19.74 4.76319 20.4817 4.46484 20.9829C4.16799 21.4816 3.81426 21.7708 3.39453 21.771C3.13877 21.771 2.92361 21.7112 2.77246 21.5698C2.61979 21.427 2.55374 21.2216 2.55371 20.9771C2.55371 20.9589 2.55721 20.9439 2.55859 20.939C2.56052 20.9321 2.56367 20.926 2.56543 20.9214C2.56899 20.9122 2.57276 20.9023 2.57715 20.8931C2.58622 20.8741 2.59951 20.8498 2.61523 20.8208C2.64688 20.7624 2.69324 20.6797 2.75488 20.5737C2.8785 20.3613 3.06428 20.0509 3.31055 19.6431L3.31152 19.6401L3.64941 19.0952C3.74757 18.9313 3.83122 18.7847 3.90137 18.6558C4.04354 18.3945 4.12382 18.2141 4.15039 18.1079L4.31445 17.4233C5.10074 14.0376 5.4974 10.6323 5.50684 7.20752H3.04785C2.97888 7.20744 2.92285 7.15151 2.92285 7.08252V6.55225C2.92285 6.51047 2.94377 6.47094 2.97852 6.44775C3.28862 6.24102 3.80652 6.14991 4.50195 6.1499H15.834L15.8828 6.15967C15.9278 6.17861 15.959 6.22307 15.959 6.2749V6.78271C15.959 6.81571 15.9461 6.84721 15.9229 6.87061C15.1777 7.6158 14.7935 8.82898 14.7988 10.5386L14.8057 10.8872L14.8975 14.0728V14.0757L14.9033 14.7378Z" fill="black" stroke="black" stroke-width="0.25" stroke-linejoin="round"/>
</svg>
