<svg width="30" height="30" viewBox="0 0 30 30" fill="none" xmlns="http://www.w3.org/2000/svg">
<path d="M23.8672 9.78662C23.9141 9.78699 23.9608 9.79999 24.002 9.82373L26.2314 11.1108L27.4258 11.7085L27.4316 11.7104L27.6445 11.8286C27.8465 11.9447 28.0137 12.0573 28.1406 12.1675C28.2962 12.3026 28.4541 12.4868 28.4541 12.7144C28.4541 12.8035 28.4146 12.8794 28.3975 12.9116C28.3734 12.957 28.3415 13.0066 28.3057 13.0571C28.2695 13.1081 28.2254 13.1662 28.1738 13.231L27.9971 13.4448C27.7479 13.738 27.6572 13.9421 27.6465 14.0679L27.4893 18.0786C27.5086 18.082 27.5282 18.0855 27.5469 18.0933C27.6489 18.1355 27.7158 18.2357 27.7158 18.3462C27.7159 18.3819 27.7305 18.4468 27.7969 18.5464C27.8465 18.6208 27.9195 18.7057 28.0195 18.8013L28.1289 18.9009L28.1338 18.9048L27.9648 19.0903L27.9551 19.1011L28.1338 18.9058C28.3042 19.0607 28.4393 19.1869 28.5361 19.2837C28.5843 19.3318 28.6257 19.3755 28.6582 19.4126C28.6852 19.4435 28.7232 19.4899 28.748 19.5396C28.8061 19.6559 28.7744 19.7965 28.6719 19.8765L26.8027 21.3306C26.7173 21.397 26.6001 21.4072 26.5049 21.356C25.542 20.8374 24.9505 20.1867 24.8711 19.3862L24.7969 19.356C24.6452 19.4883 24.4126 19.6795 24.1035 19.9224L24.0986 19.9263C23.6643 20.252 23.0613 20.6849 22.291 21.2241C22.2451 21.2563 22.1898 21.2729 22.1338 21.2729C21.1475 21.2728 20.2539 20.663 19.4463 19.5708V19.5718C18.712 18.598 18.3301 17.6028 18.3301 16.5913C18.3302 15.1446 18.8778 13.8767 19.9561 12.7983L20.2559 12.5161C20.6159 12.1913 21.1555 11.7389 21.8701 11.1626C22.3863 10.7389 22.801 10.4148 23.1113 10.1909C23.2663 10.0791 23.3987 9.98892 23.5078 9.92432C23.6056 9.86643 23.7182 9.80755 23.8203 9.79053L23.8672 9.78662ZM22.7451 12.7114C22.6329 12.7152 22.4913 12.7707 22.3164 12.936C22.1344 13.1081 21.9369 13.38 21.7285 13.7671L21.7275 13.7681C21.3697 14.424 21.207 14.9702 21.207 15.4146C21.207 15.9483 21.365 16.4668 21.6934 16.9731L21.8447 17.189L21.8535 17.2007H21.8525C22.2968 17.86 22.7843 18.1421 23.3115 18.1421C23.5523 18.142 23.8431 18.0713 24.1895 17.9126C24.5593 17.7335 24.6531 17.5538 24.6533 17.3999V13.9253C24.4667 13.7694 24.1566 13.5416 23.7119 13.2407L23.7109 13.2397C23.4463 13.0583 23.2286 12.9245 23.0576 12.8354C22.89 12.7482 22.7912 12.7177 22.7451 12.7114ZM6.93066 7.56396C6.89929 8.01488 6.81099 8.87035 6.66602 10.1147C6.66503 10.1232 6.66388 10.1318 6.66211 10.1401L6.43652 11.1968V12.2563H11.9141V9.89893C11.9141 9.19934 11.6753 8.42305 11.1758 7.56396H6.93066ZM15.0518 14.7349C15.0556 14.9837 15.0607 15.2617 15.0684 15.5688L15.1377 17.7085L15.1738 18.1313C15.2899 19.1139 15.6317 20.0596 16.2041 20.9702C16.2569 21.0544 16.26 21.1606 16.2119 21.2476C16.1638 21.3345 16.072 21.3882 15.9727 21.3882H8.40234C8.25172 21.3881 8.13009 21.2663 8.12988 21.1157V20.6538C8.12988 20.5803 8.15934 20.5099 8.21191 20.4585C8.26447 20.4072 8.33574 20.3787 8.40918 20.3804L9.42383 20.4038H9.4248L9.77344 20.4048C10.5555 20.3902 11.12 20.2572 11.4932 20.0327C11.8963 19.7901 12.0995 19.4275 12.0996 18.8999V15.0874H5.90039C5.8876 15.5634 5.84259 16.0752 5.76465 16.6226L5.76562 16.6235C5.68749 17.2799 5.5632 18.0043 5.39258 18.7954L5.3916 18.7993C5.16621 19.7786 4.9028 20.5382 4.59277 21.0591C4.28591 21.5746 3.89244 21.9193 3.39453 21.9194C3.1183 21.9194 2.85985 21.855 2.6709 21.6782C2.47864 21.4983 2.40531 21.247 2.40527 20.9771C2.40527 20.939 2.41346 20.9091 2.41602 20.8999C2.41963 20.8869 2.42401 20.8758 2.42676 20.8687C2.43226 20.8544 2.43823 20.8403 2.44336 20.8296C2.45406 20.8072 2.46823 20.7793 2.48438 20.7495C2.51708 20.6892 2.56522 20.6056 2.62695 20.4995C2.75119 20.286 2.93721 19.974 3.18359 19.5659L3.18652 19.561L3.52148 19.019C3.61897 18.8563 3.70235 18.7115 3.77148 18.5845C3.91351 18.3235 3.9843 18.1579 4.00586 18.0718C4.88606 14.521 5.33567 10.9493 5.35742 7.35596H3.04785C2.89707 7.35588 2.77441 7.23332 2.77441 7.08252V6.55225C2.77441 6.46094 2.82053 6.37537 2.89648 6.32471L3.03711 6.24365C3.38734 6.07043 3.8903 6.00147 4.50195 6.00146H15.834L15.8896 6.00732C16.014 6.0329 16.1074 6.14301 16.1074 6.2749V6.78271C16.1074 6.837 16.0912 6.88957 16.0615 6.93408L16.0273 6.97607C15.3224 7.68117 14.9422 8.8466 14.9473 10.5366L14.9531 10.8823V10.8833L15.0459 14.0679V14.0757L15.0518 14.7349Z" stroke="black" stroke-width="0.546253" stroke-linejoin="round"/>
</svg>
