<?xml version="1.0" encoding="UTF-8"?><svg id="Layer_2" xmlns="http://www.w3.org/2000/svg" viewBox="0 0 510.98 509.65"><g id="Layer_1-2"><path d="M259.46,183.59c-3.71,5.76-7.68,11.32-11.94,16.67-6.32,7.96-10.57,17.23-16.4,25.52-8.9,12.66-19.54,24.13-26.06,38.45-2.77,6.09-1.17,10.56,5.48,12.17,6.59,1.6,13.44,2.19,19.96.81,6.15-1.3,12.22-1.33,18.25-.85,11.38.89,22.75.5,34.13.78,2.71.02,5.43.18,8.13.03,4.96-.28,9.25-6.45,7.75-11.1-1.22-3.79-2.29-7.69-3.98-11.28-6.7-14.3-9.33-29.87-14.2-44.74-2.48-7.57-4.44-15.3-6.87-22.89-1.18-3.69-3.64-6.48-7.65-7.36-3.26-.72-5.15,1.55-6.6,3.79Z"/><path d="M168.61,284.99c10.53-15.58,20.83-31.32,31.38-46.89,8.87-13.09,17.8-26.15,27.47-38.67,3.46-4.48,3.5-9.57-.51-13.5-4.98-4.88-11.35-6.84-18.03-6.22-10.01.93-19.62,3.5-27.59,10.29-1.55,1.32-3.4,2.97-5.78,1.68-2.32-1.26-2.53-3.67-2.72-5.94-.1-1.27-.17-2.65.22-3.82,3.08-9.39,7.42-18.21,16.31-23.23,15.3-8.64,31.88-11.84,49.46-9.89,5.93.66,11.86,1.98,17.87,1.48,5.16-.43,8.71-3.72,10.95-7.93,1.83-3.44-.39-6.61-2.71-9.27-1.45-1.65-3.49-2.4-5.51-3.16-9.13-3.44-18.7-4.68-28.26-6.32-17.08-2.94-33.9-1.85-50.36,2.56-22.96,6.16-39.72,21.03-52.86,40.39-9.14,13.46-9.94,29.09-11.92,41.62-.04,11.9,1.68,20.65,4.51,29.25,6.43,19.51,18.22,35.38,33.17,49.06,4.95,4.52,11.35,3.77,14.89-1.48Z"/><path d="M21.79,260.54c.96,1.22,2.11,2.43.23,3.37.26.96.88,1.98.61,2.41-.67,1.06-.6,1.81.05,2.75.16.23,0,.72-.04,1.07-.15,1.02-.33,2.03-.5,3.04.39.02.79.04,1.18.05-2.83,1.54-.73,2.44.03,3.49-.41.65-.77,1.21-1.23,1.96,1.57,1.17,1.3,2.46-.17,3.66,2.79,1.3.76,2.35-.15,3.49,1.98,1.05,1.19,2.16.12,3.27.24.02.47.04.71.07-.09,1.13-.18,2.27-.27,3.41.05-.02.08-.04.13-.05l.16,14.93c-.01.62.69,1.61.47,1.88-.84,1.08-.1,1.91-.03,2.89.1,1.46-1.29,2.95.03,4.47,0,.02-.4.26-.45.44-.13.46-.4,1.16-.2,1.39.82.91.8,1.62.05,2.57-.21.28.18,1.02.26,1.56.08.55.18,1.11.14,1.66-.12,1.64-.48,3.29-.43,4.93.06,1.8.64,3.59.65,5.39,0,1.59-.56,3.19-.67,4.79-.1,1.48.03,2.97.13,4.46.12,1.77.35,3.56.45,5.33.07,1.26.08,2.52.01,3.77-.09,1.81-.29,3.64-.42,5.45-.12,1.51-.22,3.03-.33,4.66.25,2.19,1.23,4.79.63,6.96-.98,3.55,1.76,7.35-.99,10.63-.13.15.1.57.13.87.18,1.58.79,3.29.4,4.73-.42,1.57.06,2.52.75,3.7.24.41-.09,1.14-.16,1.72-.25,0-.52.01-.78.02.52,1.09,1.04,2.18,1.68,3.52-.81-.17-1.28-.28-1.93-.41.28.91.84,1.86.61,2.15-1.74,2.11.23,3.31,1.06,4.91-1.43.5-1.68,1.55-.61,2.47,1.14.99.87,1.56.06,2.57-.59.74-.96,1.85-.98,2.8-.05,1.61.84,3.47.3,4.8-.94,2.36.36,3.5,1.53,4.94.1.13.03.4.05.79-.66-.12-1.21-.21-1.59-.28-.09,1.42-.25,2.65-.23,3.87.03,1.78.55,3.66.18,5.34-.41,1.87-.03,3.04,1.47,4.02.14.09.15.37.25.66-.63.1-1.19.18-1.74.26.02,1.73.06,3.31.04,4.88-.03,1.84-.14,3.68-.15,5.52,0,2.42-.67,5.2.3,7.15,1.05,2.1,0,3.84.26,5.72.6,4.3.16,8.74.01,13.12-.07,2.11-.42,4.23-.66,6.6.72.6.75,4.6-.08,6.16,1.19,4.4,4.98,3.73,7.74,3.72,2.73,0,5.71.83,8.38-.68.14-.08.43.07.65.11,1.7.27,3.39.74,5.08.75,1.69,0,3.38-.51,5.08-.71,1.3-.14,2.63-.27,3.93-.19,2.95.2,5.9.54,8.83.81.15.02.3-.08.44-.1,1.77-.23,3.54-.55,5.31-.65,1.09-.06,2.19.22,3.28.35,1.06-.02,2.07.15,3.06.11,1.44-.06,2.87-.31,4.31-.41,1.01-.07,2.03-.03,2.97-.04,2.19.13,4.33.36,6.46.36,1.7,0,3.41-.45,5.12-.41,2.92.08,5.84.55,8.76.56,3.72.02,7.44-.33,11.17-.43,3.41-.09,6.81-.03,10.21-.1,1.74-.04,3.87-.92,5.12-.2,3.66,2.09,7.45-.17,11.1.93,1.57.46,3.49-.37,5.26-.44,2.34-.09,4.68.02,7.02.02,1.22-.01,2.45-.2,3.67-.15,1.89.09,3.77.5,5.63.43,2.82-.08,5.62-.51,8.44-.68,1.41-.09,2.85.08,4.27.15,1.99.08,3.97.29,5.95.24,2.74-.07,5.46-.45,8.2-.48,1.69-.02,3.37.54,5.04.52,3.12-.02,6.23-.37,9.35-.41,3.7-.04,7.39.15,11.08.15,1.17,0,2.33-.43,3.51-.47,1.62-.04,3.25.17,4.87.13,1.88-.05,3.76-.38,5.63-.35,2.09.03,4.18.46,6.28.48,1.39.01,2.78-.6,4.15-.58,4.13.08,8.25.49,12.37.5,4.1.01,8.21-.39,12.31-.43,3.85-.03,7.71.18,11.57.3,2.86.1,5.7.22,8.56.34,1.28.06,2.56.25,3.83.16,2.06-.15,4.1-.52,6.16-.7,3.03-.27,6.08-.46,9.12-.65.32-.02.63.28.96.33.91.14,1.82.23,2.73.33,3.44.04,6.78.31,10.14.44.43.02.89-.66,1.38-1.05,1.66,1.15,9.14,1.14,10.18-.18,1.34,1.56,5.51,1.52,6.79-.07,1.75,1.61,2.93,1.63,4.18.36,1.12.35,2.01.88,2.89.87,2.62-.05,5.22-.44,7.84-.46,3.79-.04,7.59.17,11.38.21,3.9.04,7.79.03,11.69-.02,2.47-.03,4.95-.2,7.42-.25,1.91-.04,3.86.23,5.74-.05,1.82-.27,3.39.36,5.08.55,2.13.25,4.37-.17,6.55-.39,4.52-.46,9.04-.04,13.56-.17,5.83-.16,11.67.23,17.52.33,1.06.02,2.27-.6,3.16-.27,2.27.85,4.37,1.33,6.54-.15.23-.16.72.11,1.09.11.63,0,1.28-.09,1.91-.11.58-.02,1.17-.05,1.73.03,1.03.13,2.05.34,3.07.52,1.49-.15,2.85-.03,4.21.1,2.17.21,4.39.83,6.48.54,5.96-.83,11.91-.65,17.88-.53,2.99.07,6.01-.17,8.98.03,2.94.2,3.62-.26,3.42-2.6.75-.35,1.35-.59,1.91-.9,1.67-.9.3-2.1.32-3.17.08-3.34.27-6.68.27-10.02,0-2.52-.34-5.04-.33-7.56.01-4.11.28-8.23.23-12.34-.01-1.04-.77-2.08-1.01-2.67.35-1.54.88-2.84.9-4.13.07-4.51-.09-9.03-.04-13.55.03-2.48.46-4.97.43-7.45-.02-1.82-.64-3.64-.71-5.46-.15-3.52-.18-7.05-.11-10.56.03-1.96.36-3.91.55-5.8-.16-.57-.66-1.31-.48-1.82.72-2.09.05-4.11,0-6.16-.06-2.65-.07-5.32-.03-7.97.02-.8.37-1.58.43-2.39.06-.72-.12-1.46-.15-2.19-.01-.4.13-.81.1-1.21-.11-1.56-.38-3.12-.36-4.68.02-1.79,1.09-4.2.28-5.22-1.56-2,.82-3.75-.45-5.58-.57-.81-.22-2.35-.09-3.55.19-1.72,1.25-3.75.66-5.08-.82-1.88.33-2.8.68-4.15.16-.61.08-1.34-.1-1.97-.29-1.02-1.29-2.14-1.05-2.95.65-2.23,1.11-4.25-.32-6.35-.21-.31.03-1.23.36-1.54,1.27-1.15,1.22-2.31.76-3.85-.6-2-.76-4.12-1.13-6.3.34-.19.77-.45,1.32-.77-.46-.83-.89-1.59-1.3-2.34,1.28-.99,1.2-1.17.61-2.43-.44-.92-.48-2.02-.71-3.04.33-.06.64-.12.97-.17-1.82-1.15-1.3-2.32-.48-3.12-.23-1.13-.77-2.47-.5-2.68,1.85-1.31.51-2.27-.41-3.47.65-.12,1.09-.21,1.74-.33-.49-1.05-.95-2.03-1.41-3.01.47-.87.45-1.78.45-2.7,0-.53-.14-1.13.07-1.58.92-2.07,1.21-4.02-.55-5.83-.2-.21-.14-.67-.23-1.13.69.16,1.2.28,1.95.45-.48-2.67-.92-5.06-1.34-7.33.12.03.57.15,1.35.35-.4-1.13-.96-1.96-.93-2.75.13-2.91.64-5.8.69-8.71.07-4.88-.06-9.77-.19-14.65-.07-2.82-.41-5.62-.47-8.43-.04-2.2.23-4.41.26-6.61.03-3.74,0-7.48-.05-11.22-.01-1.32-.67-2.92-.15-3.91.94-1.76.37-3.4.37-5.07-.03-5.44-.28-10.87-.31-16.3-.01-3,.77-6.09.25-8.96-.79-4.47-.13-8.73.45-13.07.05-.35-.06-.73-.12-1.1-.27-1.76-.56-3.52-.81-5.29-.02-.15.31-.35.33-.53.05-.76.04-1.53.02-2.3,0-.34-.14-.67-.11-1,.17-1.64.39-3.28.56-4.93.03-.2-.17-.41-.2-.63-.24-1.69-.63-3.39-.61-5.08.02-1.54.55-3.07.77-4.61.04-.3-.3-.64-.41-.97-.16-.47-.39-.96-.36-1.43.08-1.16.28-2.3.44-3.46.15-1.53,2.24-2.64.42-4.68-.24-.25.09-.98.11-1.5.06-1.64.61-3.49.05-4.88-.94-2.35-.98-4.29.68-6.27-.71-1.16-1.37-2.26-2.19-3.59.71.1,1.22.17,2.04.28-.64-2.02-2.82-3.59-1.16-5.74-1.61-1.88.06-3.35.59-4.98.09-.26.18-.55.16-.83-.16-2.41-.42-4.82-.47-7.23-.03-1,.58-2.01.54-3-.06-1.78-.89-3.69-.47-5.3.55-2.07-.41-3.2-1.42-4.54-.06-.08.04-.28.09-.54.45-.04.92-.07,1.18-.09.18-1.42.5-2.71.5-4.01,0-1.68-.32-3.35-.32-5.02,0-2.08.32-4.15.29-6.22-.04-2.51-.45-5.02-.45-7.52-.01-4.58.27-9.15.23-13.73-.04-4.83-.45-9.65-.47-14.47,0-6.8.18-13.61.31-20.41.06-3.07.13-6.14.29-9.2.07-1.23-1.12-2.53-2.28-2.35-1.66.24-3.33.48-5,.48-1.69,0-3.37-.3-5.07-.45-.2-.02-.41.17-.63.18-.76.04-1.51.02-2.27.05-.47.03-.94.07-1.4.18-.48.1-.96.44-1.41.41-1.13-.08-2.26-.29-2.92-.39l-10.79.11c-1.12-.51-2.24-1.42-3.48.6-1.25-2.12-2.37-1.05-3.04-.34-1.57-.11-2.69-.2-4.23-.3-.69-.84-5.83-.84-6.59-.09-1.78.15-2.95.24-4.5.36-.81-1.6-2-.08-3.17.58-1.17-1.69-2.24-1.27-3.32.1-1.16-1.46-2.32-1.53-3.45.09-1.22-1.8-2.38-2.25-3.42.18-1.2-1.38-2.42-1.69-3.39-.52-1.32-.83-2.43-1.52-3.57-2.23-1.43.59-2.95,1.21-4.7,1.92-.27-.02-.94-.23-1.61-.16-1.64.14-3.28.49-4.91.59-1.09.06-2.19-.18-3.28-.28v.47c-1.18-.89-2.37-1.79-3.6-2.72-1.1,1.86-2.32,1.17-3.5.16-.34.62-.64,1.16-1.01,1.85-.9-.72-1.63-1.31-2.54-2.05-1.06,2.16-2.41,1.17-3.8-.01-.09.84-.16,1.42-.26,2.31-1.07-.81-1.87-1.43-2.8-2.14-1.13,1.39-2.39,1.45-3.73-.14-.36.69-.6,1.17-.89,1.71-.55-.19-1.07-.32-1.53-.55-.51-.27-.97-.63-1.45-.95q-1.24,1.49-3.71.03c-.22.6-.43,1.19-.7,1.93-1.21-.78-2.31-2.31-3.51-.21-.59-.62-1.06-1.12-1.58-1.67-.44.29-.75.49-1.06.67-.31.18-.62.34-.9.49q-1.46-1.43-3.56.34c-.65-.46-1.31-.92-2.1-1.46-1,1.93-2.22,1.01-3.47.14-1.12,2.74-2.32.43-3.52.11-1.16,3.01-2.21.52-3.31-.12-1.14,1.9-2.37,1.32-3.56.03-.27.78-.49,1.37-.79,2.24-.99-.79-1.77-1.4-2.59-2.05-1.01.63-2.03,1.86-3.13.05-.1-.17-1.06-.12-1.22.1-1.2,1.76-2.17.38-3.21.34l-17.43.18c-.69-.07-1.94.68-2.04.56-1.45-1.95-2.45-.32-3.44.44-.69-.54-1.26-.97-1.9-1.48-.51.66-.9,1.16-1.36,1.75-.88-.59-1.66-1.12-2.5-1.68-1.1,1.94-2.18.9-3.3-.02-.41.55-.79,1.04-1.25,1.65-.81-.63-1.5-1.16-2.61-2.02-.15.35-.27.99-.45,1-1.7.14-3.41.24-5.12.24-.96,0-1.91-.19-2.88-.29-.87.15-1.71-.1-2.58-.2-.74-.09-1.5-.01-2.25-.02-.51,0-1.02-.07-1.51-.02-1.65.2-3.29.51-4.94.62-.49.03-1.01-.51-1.59-.82-.37.58-.66,1.05-.95,1.52-.04-.21-.07-.41-.11-.62-2.61-.14-5.22-.3-7.81-.44-2.09.02-4.11.02-6.14.08-.38.01-.76.39-1.12.36-1.76-.15-3.5-.39-5.25-.59-.14,0-.29.08-.43.11-1.71.28-3.42.78-5.13.78-1.76,0-3.51-.55-5.28-.69-.65-.06-1.33.56-2.01.59-1.02.06-2.07-.13-3.1-.21-1,.1-1.87.11-2.74.12-.4,0-.8.03-1.2,0-1.76-.11-3.53-.35-5.29-.3-1.73.05-3.46.57-5.18.58-1.77,0-3.55-.62-5.29-.52-2.69.17-5.35.06-8.03.07-2.84.01-5.8-.44-8.63.61-.8.3-1.76.2-2.63.29,0,.23.01.45.02.68-.84-.49-1.68-1.39-2.52-1.39-1.69,0-3.37.51-5.06.77-.19.03-.4-.14-.61-.2-2.83-.91-5.66-.93-8.61-.53-2.32.32-4.84,1.13-7.05-.03-2.06-1.07-3.96-.04-5.89-.05-3.29-.01-6.82,1.56-9.81.79-4.08-1.05-7.96.05-11.91-.37-1-.11-2.34.98-3.07.61-3.27-1.67-6.88,1.02-10.05-.95-.08-.05-.28.09-.42.09-2.08-.01-4.15-.04-6.22-.06-1.6-.03-3.18-.11-4.78-.08-1.04.01-2.08.18-3.19.29-1.06-.09-2.06-.18-3.07-.25-.32-.02-.64-.01-.97,0-3.11.14-6.21.38-9.32.4-1.55,0-3.1-.41-4.66-.59-.24-.02-.5.34-.76.36-.98.05-1.96.04-2.93.05-1.06.07-2.05-.02-3.04-.1-.26-.02-.53-.02-.81,0-1.84.23-3.66.46-5.5.69-.06,0-.14-.07-.21-.07-1.83-.08-3.67-.38-5.47-.19-1.66.18-3.4-1.06-5,.31-.11.09-.62-.34-.97-.42-.35-.09-.74-.08-1.11-.05-.93.08-1.86.2-2.78.31-.03-.29-.06-.58-.08-.87-1.23,1.83-2.42,1.28-3.45.12-1.94,1.73-4.08,1.18-6.12,1.02-1.7-.15-3.37-.46-5.05-.69-.13-.02-.27.14-.41.16-1.06.13-2.11.25-3.16.38-.67-.13-1.29.31-1.94.36-2.41.12-4.92-.27-7.2.28-2.41.59-4.59-2.07-6.9-.15-.05.05-.25-.12-.4-.14-1.73-.18-3.47-.44-5.2-.49-1.12-.03-2.24.27-3.93.49-.71,1.26-1.94-.13-3.03-.72-1.31,1-3.26,1.24-1.99,3.77.56,1.13-.49,3-.64,4.56-.14,1.49.02,3.01-.07,4.51-.04.53-.75,1.13-.63,1.55.54,1.85,3.13,3.32.96,5.64,1.15,1.38-1.04,3.46.97,4.69.1.06-.06.56-.1.85-.58,3.43-1.51,6.85-1.6,10.3-.06,2.14.72,4.32,0,6.51-.06.17.09.42.11.63.15,1.88.28,3.78.4,5.67.07,1.1.23,2.2.2,3.29-.07,2.06-.29,4.11-.34,6.16-.03,1.36.68,3.11.08,4-1,1.46-.44,2.12.2,2.72-.18,2.43-.99,4.67-.29,6.24.69,1.54-.6,2.33-.26,3.51.3,1.04.38,2.15.55,3.17-.1,1.31-.17,2.38-.27,3.86.08.22.75,1.42.6,1.54-1.89,1.41-.33,2.68.3,4.18-.8-.1-1.29-.17-1.8-.23.03,2.47-.99,5.05,1.84,6.56-2.38,1.59-3.12,4.95-.08,6.95-.53.71-1.05,1.41-1.65,2.23.53.4.97.74,1.42,1.09-1.72,2.58-1.78,5.05.44,7.55-.77.04-1.31.08-2.45.14l.18,17.54c-.2.01-.41.02-.61.03.78,1.12,1.56,2.25,2.36,3.39-2.13.48-1.15,1.79-.48,3.09-.64-.09-1.15-.17-1.31-.19l.2,18.92c1,.72.78,1.89-.28,3.09.21.98.09,1.92.01,2.87-.02.34.09.69.09,1.02-.02.83-.12,1.66-.07,2.48.03.61.15,1.26.4,1.81.33.71.86,1.33,1.47,2.27-.85-.17-1.35-.28-1.63-.34l.12,11.31c-.05.76.3,1.56.29,2.36-.02,1.02-.31,2.05-.48,3.08.44.05.87.11,1.31.16-2.59,1.11-1,2.39-.91,3.69.13,1.77-.92,3.78-.39,5.31.65,1.86-.25,2.87-.83,4.21-.19.43-.13.96-.18,1.45-.13.86-.25,1.73-.38,2.6.79,2.47.9,6.15-.07,7.48l.08,7.62c1.18.75.89,1.96.07,2.58-.25,4.28,1.44,7.92-.29,12.01.3.16.84.44,1.37.72-.67,1.02-1.15,1.75-1.66,2.53,1.8,1.03,1.53,2.11.21,3.22ZM96.28,394.16c11.03-18.63,21.7-37.52,36.25-53.8,1.88-2.1,3.28-4.68,4.62-7.19,3.31-6.17,7.07-12.01,11.29-17.62,5.06-6.72,4.64-11.28-1.37-17.33-8.78-8.82-17.02-18.08-24.21-28.22-6.91-9.76-14.12-19.39-18.35-30.76-2.79-7.5-4.48-15.32-6.14-23.12-2.89-13.57-2.97-27.19.61-40.68,5.15-19.4,12.95-37.44,27.59-51.81,3.28-3.22,5.11-7.5,8.3-10.83,10.03-10.5,23.15-15.74,35.79-22.01,15.38-7.62,32.06-9.87,48.52-13.11,6.47-1.27,13.11-.04,19.66-.26,14.18-.68,28.12,2.04,42.2,2.84,4.79.27,10.08,5.39,10.84,10.13.45,2.8.53,5.67.62,8.52.33,9.46,6.03,14.31,15.23,12.82,9.02-1.46,17.06.41,22.24,8.32,2.84,4.34,4.44,9.55,6.21,14.51,5.66,15.85,11.95,31.52,16.85,47.56,6.81,22.28,15.8,43.69,23.63,65.55,9.32,26.03,18.43,52.13,27.58,78.22,5.14,14.65,10.61,29.18,15.94,43.75,4,10.94,6.99,22.29,10.98,33.27.49,1.34.97,2.69,1.58,3.98,3.43,7.32-1.01,14.55-9.16,14.32-15.95-.44-31.9-1.55-47.85-1.64-5.56-.03-11.2-.47-16.79.22-4.92.61-12.92-5.09-14.74-10.75-6.47-20.07-12.71-40.22-19.21-60.28-1.8-5.55-3.71-11.15-6.42-16.28-2.82-5.34-7.23-8.87-14.02-8.84-18.84.1-37.69-.15-56.53-.18-2.98,0-6.01.18-8.95.67-10.03,1.67-19.91-.24-29.85-.91-12.24-.84-24.52.24-36.78-1.11-7.51-.83-18.98,9.61-18.89,17.13.06,5.06,4.01,8.43,8.33,10.59,8.42,4.21,16.98,8.12,25.52,12.09,19.41,9.01,38.88,17.88,58.22,27.03,6.17,2.92,11.81,2.74,17.38-1.05,4.84-3.29,9.55-6.74,13.81-10.8,2.83-2.69,6.13-3.02,9.34-.63,2.72,2.03,2.92,5.64.88,9.23-1.64,2.88-3.52,5.56-6.09,7.66-3.31,2.71-6.51,5.64-10.14,7.85-12.58,7.66-24.25,16.62-36.04,25.36-9.6,7.11-18.35,7.28-28.9,1.79-22.9-11.91-45.19-24.97-68.51-36.08-3.54-1.69-7.31-2.49-11.12-2.95-8.88-1.06-19.77,6.54-14.81,19.07,1.43,3.6,2.32,7.34,2.99,11.14.77,4.42-.56,8.07-3.5,11.4-3.36,3.79-7.4,5.68-12.2,3.91-4.89-1.8-8.32-5.1-9.14-10.82-1.57-10.87,1.29-20.71,6.7-29.85Z"/><path d="M510.22,377.54c.17-8.42.14-16.84.22-25.27.01-1.21.32-2.42.25-3.62-.11-1.74-.47-3.46-.66-5.19-.03-.32.29-.66.35-1.01.1-.54.38-1.27.14-1.63-2.05-3.03.41-6.17-.31-9.26-.37-1.58.05-3.33.01-5-.04-1.76-.24-3.51-.32-5.27-.06-1.19-.13-2.38-.04-3.56.13-1.73.58-3.45.54-5.16-.05-2.15-.31-4.32-.76-6.42-.44-2.01,1.02-3.87.04-5.98-.53-1.14-.16-2.75-.04-4.13.14-1.65.88-3.37.57-4.91-.48-2.41-.7-4.68,0-7.04.08-.28-.27-.67-.33-1.02-.09-.55-.13-1.12-.11-1.67.07-1.81.28-3.61.25-5.42-.02-1.57-.36-3.14-.44-4.72-.11-2.21-.1-4.42-.14-6.63,0-.37-.01-.74.02-1.1.14-1.64.4-3.28.4-4.92,0-1.88-.24-3.75-.33-5.63-.06-1.14-.13-2.29-.03-3.43.16-1.8.48-3.59.69-5.39.14-1.19.35-2.41.27-3.6-.13-1.86-.61-3.7-.69-5.56-.15-3.29-.12-6.58-.14-9.87,0-1.69.04-3.39.1-5.08.02-.68.27-1.37.21-2.04-.21-2.47-.99-5.02-.57-7.36.26-1.49.7-2.56.48-4.33-.58-4.64-.08-9.43.08-14.16.08-2.39.42-4.77.54-7.16.09-1.88.11-3.77.02-5.65-.08-1.53-.37-3.05-.57-4.57-.09-.79.09-1.66.07-2.53-.06-1.91-.39-3.82-.31-5.71.1-2.35.59-4.68.76-7.03.13-1.77-.04-3.55.04-5.32.07-1.59.45-3.17.41-4.75-.04-1.69-.83-3.46-.54-5.05.39-2.1-.21-4.04-.17-6.06.03-1.61.09-3.22.17-4.83.09-1.83.35-3.67.31-5.49-.04-1.64-.57-3.28-.54-4.92.03-1.62.51-3.23.72-4.86.04-.29-.36-.62-.42-.95-.12-.66-.18-1.35-.19-2.02,0-.45.2-.9.19-1.35,0-.88-.1-1.77-.17-2.87.09-.92.19-1.92.3-2.92.03-.29.15-.59.11-.86-.25-1.68-.55-3.35-.81-5.02-.03-.21.07-.43.11-.65.28-1.64.57-3.27.82-4.91.03-.19-.16-.41-.19-.63-.25-1.59-.65-3.19-.67-4.78-.02-1.58.88-3.35.41-4.71-.53-1.53.6-3.3.11-3.81-1.82-1.9.29-3.72-.36-5.77-.91-2.85.06-6.27.12-9.45.03-1.46-.3-2.92-.25-4.38.09-2.92.47-5.84.46-8.75-.02-5.18-.29-10.36-.35-15.55-.02-1.74.3-3.48.46-5.22-.07-1.22.12-2.37.07-3.52-.08-1.95-.46-3.89-.43-5.83.02-1.52.47-3.03.7-4.55.03-.21-.09-.43-.12-.65-.17-1.77-.76-3.62-.42-5.28.74-3.56,1.24-6.9-.75-10.28-1.06-1.8-3.38-2.75-5.15-1.61-1.15-.68-2.3-1.61-3.09.35-.73-.44-1.3-1.06-1.89-1.08-1.41-.05-3.45-.34-4.11.43-1.34,1.56-2.1,1.48-2.81.48-2.22.02-4,.12-5.76.04-1.63-.08-3.25-.35-5.62-.62-2.32,1.57-5.63-.77-8.87.11-1.71.47-3.72-.24-5.61-.33-1.22-.06-2.45,0-3.67.1-3.4.27-6.81,2-10.2-.11-.34-.21-.89-.07-1.33-.14-1.2-.2-2.41-.43-3.84-.68-.91,1.86-2.07.53-3.21-.29-1.39,1.53-1.67,1.53-2.8.53-2.86.03-5.16.05-7.91.08-.78,1.07-1.99.89-3.08-.59-2.8,2.66-6.21-.39-8.83,1.15-.91-.33-2.25-1.04-2.41-.83-1.24,1.6-2.22.51-3.32-.27-1.14,2.05-2.35,1.3-3.45.07-1.46,1.68-1.58,1.68-3.66.09-1.11,1.84-2.19,1.19-3.29-.39-1.09,1.32-2.21,2.41-3.36,0-1.15,1.38-2.27,2.43-3.3.23-.83.54-1.5.98-2.3,1.5-1.1-1.65-2.28-1.54-3.47.03-1.16-1.7-2.33-1.54-2.95-.77-1.8.02-3,.09-4.19.03-1.94-.1-3.89-.41-5.83-.38-1.72.03-3.44.53-5.16.58-2.11.06-4.23-.13-6.35-.21-.66-.02-1.72-.3-1.9-.02-1.29,2.03-2.2.32-3.22-.34,0,.22,0,.44,0,.66l-6.82.07c-.8-.03-2.28.65-2.42.44-1.29-1.93-2.25-.46-3.33.35-1.21-2.31-2.29-.55-3.52.14-1.04-1.63-2.17-1.95-3.23-.08-.78-.43-1.43-.79-2.24-1.24-1.01,2.47-2.17.57-3.33,0,.01.22.02.44.03.66-1.16.07-2.31.13-3.98.23-.8,1.38-1.97.16-2.86-.66-1.03.4-2.42,1.1-2.53.95-1.18-1.75-2.13-.6-3.32.36-1.04-2.19-2.2-1.15-3.35,0-1.17-1.47-2.33-1.89-3.43.1-1.14-1.66-2.3-1.94-3.15-.66-1.22-.2-2.65-.75-2.89-.42-1.3,1.8-2.13.21-3.18-.37-1.04,1.75-2.14,1.36-3.28-.1-1.13,1.82-2.31,1.83-3.32.36-.92.35-2.14,1.03-2.3.84-1.35-1.63-2.33-.62-3.48.5-1.04-1.84-2.2-1.54-3.26-.22-1.76-1.06-3.22-2.15-5.55-1.26-1.87.71-4.1.52-6.18.6-3.18.13-6.37.15-9.56.23-1.41.03-2.82.17-4.23.12-1.75-.07-3.55-.67-5.21-.37-2.52.45-4.87.36-7.41.06-3.51-.42-7.12-.02-10.68.12-.56.02-1.22.86-1.62.72-2.68-.98-5.41-.8-8.18-.77-1.92.02-3.84-.28-5.76-.41-1.43-.1-3.28-.75-4.23-.1-2.35,1.6-4.77.25-6.96.81-3.07.78-5.88-1.21-8.97-.19-1.41.47-3.27-.43-4.93-.66-.32-.04-.68.21-1.02.25-.66.09-1.32.18-1.98.19-.46,0-.93-.18-1.39-.15-1.74.11-3.49.41-5.23.4-1.83-.01-3.9-.91-5.42-.3-1.37.55-2.31-.38-3.22-.04-1.16.43-2.11.86-3.22.02-.17-.13-.56.03-.85.08-1.36.24-2.72.66-4.09.69-1.06.03-2.13-.55-3.21-.62-2-.12-4.02-.22-6-.01-1.53.16-3.08,0-4.51.19-1.02.14-1.82.5-2.79-.09-.25-.15-.7.06-1.06.07-1.72.05-3.43.09-5.15.15-.76.03-1.52.15-2.29.16-.61,0-1.22-.08-1.82-.13-.56-.04-1.13-.14-1.69-.13-1.68.04-3.35.16-5.03.17-1.72.02-3.44-.11-5.16-.07-1.7.05-3.4.34-5.1.32-1.72-.02-3.44-.28-5.15-.41-.19-.01-.4.23-.61.24-.76.05-1.52.07-2.28.06-.5,0-1-.18-1.48-.12-1.58.19-3.37,1.01-4.68.52-1.47-.55-2.48.1-3.68.12-2.91.03-5.82-.45-8.74-.67-.32-.02-.65.32-1,.42-.47.14-.97.33-1.44.29-1.73-.15-3.45-.47-5.19-.58-1.31-.08-2.64.02-3.95.13-1.6.14-3.19.54-4.79.54-1.91,0-3.83-.52-5.74-.48-2.84.06-5.7.77-8.48.49-1.43-.15-2.61-.12-4.01.07-1.85.26-3.81-.45-5.71-.37-2.71.11-5.41.57-8.12.85-.27.03-.56-.18-.85-.2-1.84-.15-3.68-.37-5.53-.38-1.58,0-3.17.38-4.76.36-2.03-.03-4.06-.42-6.1-.42-5.27-.01-10.55.37-15.8.08-3.77-.21-7.52.6-11.3-.15-2.28-.45-4.77-.55-7.04-.14-1.14.2-2.99,2.07-2.84,2.88.57,3.09.44,5.88-1.02,8.58.22.84.23,1.65.14,2.45-.04.34-.41.68-.37,1,.2,1.76.9,3.58.6,5.24-.25,1.35.22,2.35.31,3.51.13,1.65-.43,3.35-.48,5.03-.06,1.97.1,3.95.19,5.92.05,1.08.21,2.16.18,3.23-.1,3.22-.25,6.43-.4,9.65-.21,4.54-.44,9.07-.64,13.61-.06,1.23-.31,2.54-.01,3.69.59,2.25.58,4.39.08,6.64-.27,1.24-.13,2.58-.08,3.87.1,3.01.33,6.02.36,9.03.03,2.87-.22,5.74-.2,8.61.02,2.88.47,5.78.29,8.65-.27,4.29-.71,8.54-.36,12.88.3,3.73.44,7.56-1.01,11.19-.1.25-.02.59.03.87.27,1.66.56,3.32.82,4.98.03.19-.19.41-.21.62-.04.62-.07,1.25-.03,1.87.03.49.28.98.23,1.44-.19,1.85-.62,3.69-.64,5.54-.03,2.71.3,5.42.32,8.13.02,3.28-.13,6.56-.17,9.84-.04,3.04-.06,6.09-.07,9.13,0,2.36.04,4.73.07,7.09.24.08.49.17.73.25.53-.44,1.09-.86,1.59-1.34,1.3-1.22.51-2.66.62-4.05.28-3.52.34-6.99.25-10.51-.13-5.08.08-10.17.16-15.26.04-2.73.2-5.46.15-8.19-.06-3.15-.45-6.31-.39-9.46.07-3.8.56-7.59.68-11.38.06-1.72-.57-3.46-.47-5.17.17-3.14.7-6.26.95-9.41.08-.98-.71-2.3-.3-2.92,1.41-2.11-.71-4.05.03-6.08.36-.98.39-2.12.37-3.19-.02-1.64-.33-3.28-.29-4.91.07-3.13.24-6.26.49-9.37.19-2.29-.46-4.47-.18-6.87.57-4.76.07-9.64-.05-14.47-.1-4.01-.42-8.02-.43-12.04,0-3.77.31-7.53.43-11.3.09-2.79.14-5.58.13-8.37-.02-3.13-.21-6.25-.18-9.38.02-1.63.38-3.25.55-4.87.13-1.25.2-2.5.3-3.74.24.22.49.44.73.66,1.74-.33,3.47-.68,5.21-.99.36-.06.73-.03,1.1-.01,2.78.16,5.56.4,8.34.49,4.36.13,8.72.2,13.08.22,4.35.02,8.71-.12,13.06-.09,2.74.02,5.47.27,8.21.32,4.49.08,8.98.11,13.46.11,1.46,0,2.93-.18,4.39-.27,1.85-.12,3.7-.35,5.54-.31,1.59.03,3.19.61,4.76.53,3.05-.16,6.08-.82,9.13-.89,8.36-.2,16.73-.17,25.09-.29,7.22-.1,14.44.13,21.67-.22,4.02-.19,8.08.24,12.12.38,1.34.05,2.69.12,4.03.05,4.23-.23,8.46-.66,12.69-.75,6.79-.14,13.58-.06,20.37-.09,6.79-.03,13.58-.09,20.37-.09,2.42,0,4.84.08,7.26.17,1.28.05,2.57.36,3.83.26,1.74-.14,3.44-.76,5.17-.8,4.77-.12,9.55-.08,14.33-.04,4.01.03,8.01.14,12.01.23,1.43.03,2.86.22,4.28.15,2.93-.15,5.88-.75,8.78-.54,2.37.17,4.61.19,6.99-.11,3.6-.45,7.31-.32,10.95-.09,2.31.15,4.58.78,6.86-.14.24-.1.59.08.88.09,1.68.05,3.35.11,5.03.14.97.02,1.94-.02,2.92-.03,1.93-.6,2.01-.57,2.33,1.49,1.41-.51,2.5-2.72,4.38-.78.11.12.6-.01.85-.15,2.4-1.25,4.82-1.19,7.29-.23.34.13.74.17,1.1.13,2.55-.32,5.09-.82,7.65-.97,1.63-.1,3.29.38,4.94.45,2.56.11,5.31-.48,7.64.29,2.07.68,3.3.12,4.31-.63,1.91.59,3.46,1.4,5.04,1.46,1.78.06,3.57-.62,5.37-.86.64-.09,1.32.19,1.99.25.96.09,1.93.13,2.9.2,1.03-.07,1.97.07,2.91.19.34.04.68.07,1.02.03,1.77-.19,3.7-.96,5.26-.48,2.6.79,4.67.22,6.17-.68,1.22.19,1.86.37,2.5.38,1.73.05,3.47-.06,5.2.05,2.41.15,4.87,1.04,7.06-.76.16-.13.39-.17.72-.3,0,.57.01,1.03.02,1.74.63-.31,1.08-.72,1.52-.72,1.61.03,3.22.21,4.84.31.61.04,1.23.05,1.84-.01.55-.06,1.3-.51,1.61-.29,1,.7,1.71.49,2.52-.24.24-.22.93-.37,1.04-.24.82.99,1.69.33,2.6.35,1.38.03,2.75-.08,4.08-.05,2.14.06,4.25.7,6.38-.13.24-.1.58.04.87.07,1.78.2,3.57.56,5.35.56,2.77,0,5.55-.37,8.32-.38,5.44-.02,10.89.13,16.33.14,1.79,0,3.59-.25,5.38-.25,2.85,0,5.71.16,8.56.15,1.72,0,3.44-.32,5.17-.32,5.64,0,11.29-.08,16.92.21,3.55.18,7.07.95,10.61,1.46.27.04.56.21.79.14,3.56-1.13,7.12-1.44,10.83-.64,1.98.43,3.1,1.17,3.17,3.3.12,3.72.52,7.41.13,11.17-.36,3.53-.06,7.13-.01,10.69.07,5.36.14,10.72.28,16.08.03,1.23.52,2.45.49,3.66-.04,1.82-.43,3.63-.55,5.45-.22,3.4-.36,6.8-.5,10.21-.05,1.31-.08,2.63.03,3.93.16,1.78.73,3.56.65,5.32-.12,2.78-.64,5.55-.95,8.33-.05.42.31.89.23,1.29-.35,1.83,1.19,3.36.22,5.54-.96,2.16-1.37,4.98-.44,7.46.39,1.05.29,1.94.35,2.94.08,1.36-.34,3.37.12,3.9,1.78,2.08-.15,4.05.17,6.1.5,3.17-1.09,6.61-1.32,9.97-.23,3.42-.61,7.12.41,10.27,1.04,3.21-.49,6.13.32,9.23.54,2.09-.36,4.53-.41,6.82-.03,1.14.6,2.29.57,3.43-.05,1.88-.57,3.74-.58,5.61-.01,8.08.16,16.16.13,24.23-.01,3.79-.46,7.57-.45,11.36,0,2.63.55,5.26.68,7.9.14,2.73.14,5.46.05,8.19-.06,1.94-.6,3.87-.54,5.8.09,3.19.71,6.37.69,9.54-.04,4.55-.53,9.1-.7,13.66-.12,3.24.26,6.48.19,9.74-.06,2.71-.03,5.42-.23,8.15-.24,3.28.18,6.61.09,9.91-.06,2.48-1.1,5.1-.56,7.38.59,2.48.17,4.9.61,7.32.64,3.51-1.1,7.23.86,10.66.08.14-.02.44-.12.61-1.88,3.24-.71,6.89-1.29,10.33-.51,3.05.22,6.32.43,9.49.11,1.63.41,3.26.38,4.89-.03,1.51-.42,3.02-.59,4.53-.2,1.85,1.25,3.68,0,5.58-.2.3.2.97.27,1.47.07.46.11.93.09,1.4-.08,1.76-.29,3.52-.25,5.27.03,1.64.37,3.27.46,4.91.11,2.3.12,4.61.16,6.91,0,.35-.05.7-.08,1.04-.15,1.76-.45,3.51-.41,5.27.03,1.54.64,3.08.61,4.61-.06,3.02-.53,6.03-.56,9.04-.03,2.93.41,5.87.43,8.81.02,3.08-.3,6.17-.34,9.25-.06,4.05,0,8.1.02,12.15,0,1.25.32,2.55.09,3.74-.47,2.46-.68,4.8,1.22,7.07-2.41.91-2.24,2.03-.31,2.99-.59.99-1.62,1.93-1.5,2.68.42,2.51-2.47,5.27.54,7.56.14.11.09.58,0,.85-1.1,3.31-1.17,6.57.27,9.81.16.36.14.96-.06,1.3-1.55,2.75-1.16,5.57-.55,8.48.25,1.18.19,2.52-.12,3.68-.19.72-.43,1.08-.15,1.98.52,1.65-1.39,3.35-.23,5.33.39.67-.19,1.91-.33,2.89.07,2.01-.12,3.93-.29,5.86,0,.11.25.22.25.34.05.7.09,1.4.08,2.1,0,.34-.3.93-.2.99,1.8,1.12.47,2.13.16,2.61.23,2.39.59,4.26.55,6.12-.04,1.79-.7,3.56-.73,5.35-.08,4.4.1,8.81.07,13.21-.01,3.12-.33,6.25-.23,9.37.07,2.05-2.51,5.29-4.51,5.2-2.97-.13-5.94-.21-8.91-.3-.21,0-.43.12-.65.14-1.56.13-3.11.28-4.67.35-2.08.09-4.16.12-6.24.18-.44.01-.87.03-1.31.04-.75,0-1.5.01-2.25,0-.5,0-1-.02-1.49-.05-1.72-.11-3.44-.32-5.16-.31-1.66,0-3.32.29-4.98.36-1.07.04-2.15-.1-3.22-.16-.63.11-1.25-.25-1.9-.34-.75-.1-1.53.07-2.3.07-1.65-.01-3.3-.18-4.94-.07-2.88.19-5.74.65-8.61.76-1.79.07-3.59-.46-5.38-.45-1.72,0-3.5.75-5.15.49-3.07-.5-6.09-1.22-9.24-.78-1.01.14-2.05.2-3.06.1-1.78-.17-3.54-.69-5.31-.7-4.81-.04-9.62.1-14.43.18-5.39.09-10.79.15-16.18.29-1.07.03-2.41.9-3.14.49-2.26-1.26-4.51-.52-6.75-.47-2.21.04-4.42.41-6.63.57-1.24.09-2.5.11-3.75.05-2.28-.11-4.55-.42-6.83-.44-2.64-.02-5.24-.3-7.93.05-2.95.39-6.01-.06-9.02-.06-3.1,0-6.19.1-9.29.11-1.58,0-3.37-.58-4.68-.01-1.47.64-2.25.64-2.72-.21-2.7.03-5.01.05-7.33.08-1.19-.02-2.32-.09-3.44-.2-.28-.03-.67-.32-.82-.21-2.7,1.91-5.77-.01-8.61.88-1.26.39-2.85.35-4.11-.05-1.61-.51-3.54.96-4.88-.85-.05-.07-.52.21-.81.26-.75.13-1.5.23-2.26.31-.41.05-.82.05-1.23.05-.75.01-1.5.06-2.24,0-.39-.03-1.05-.43-1.1-.36-1.19,1.89-2.17.08-3.35-.21-.94,1.82-2.87.05-3.21.36-1.99,1.85-3.92-1.06-6,.27-1.03.66-3-.17-4.54-.28-.17-.01-.37.22-.55.35-.88.64-1.67.9-2.54-.15-.21-.26-1.05-.06-1.58.03-.38.07-.75.5-1.09.46-2.23-.21-4.44-.56-6.67-.74-.87-.07-1.77.21-2.66.27-1.82.13-3.64.21-5.46.31-1.09.06-2.17.15-3.26.14-1.08,0-2.17-.13-3.25-.19-1.2.02-2.38-.57-3.58-.64-3.35-.2-6.73,1.81-10.08-.13-.14-.08-.45.03-.64.14-1.74,1.01-3.66-1.13-5.4.3-.12.1-.63-.36-.99-.43-.44-.09-.91-.1-1.36-.07-2.15.14-4.29.3-6.44.45-.68-.08-1.5.39-2.05.17-2.04-.78-4.02-.08-6.02-.06-3.07.04-6.13.13-9.2.11-1.51,0-3.03-.33-4.54-.28-1.72.06-3.42.39-5.13.56-.25.02-.52-.26-.8-.31-.5-.08-1.01-.14-1.51-.13-1.89.03-3.81.36-5.64.07-1.55-.25-3.34.88-4.67-.69-1.1,1.26-2.34,1.2-3.66.4-.03-.02-.12.1-.19.11-1.05.08-2.1.16-3.16.24-.86-.05-1.69.25-2.54.37-.67.09-1.38-.05-2.07-.06-.44,0-.88.1-1.31.04-1.06-.14-2.12-.35-3.18-.53-1.23-.94-2.32-.56-3.27.56-.81-.27-1.89-.89-2.12-.66-1.39,1.39-2.53.43-3.74-.32-1.14,2.02-2.27,1.1-3.01.36-1.21.26-2.07.57-2.94.6-.99.03-1.99-.18-3.53-.35-.69-1.23-1.81-.62-2.92.82-1.17-1.42-2.33-1.8-3.4-.02-1.21-1.05-2.33-1.79-3.24-.3-1.01-.29-2.4-.92-2.55-.71-1.25,1.84-2.31.39-3.46.21-.89.24-1.73.09-2.59.04-.69-.04-1.39,0-2.07.09-.39.05-.78.43-1.14.4-1.01-.08-2.02-.29-3.66-.55-.66-1.07-1.76-.35-2.78.91-1.86-1.66-1.93-1.52-3.52,0-.73-.35-1.71-1.18-2.08-.96-1.74,1.03-2.92-.36-4.34-.68-.5-.11-1.02-.25-1.52-.21-2.94.21-5.88.54-8.82.69-2.24.11-4.57.38-6.7-.1-1.51-.34-2.69-.1-4.1.1-1.69.24-3.55-.65-5.22-.37-1.1.18-1.92.26-3.03-.01-1.37-.34-2.9-.05-4.36.04-1.76.1-3.52.39-5.29.38-1.92,0-3.84-.29-5.76-.38-1.15-.05-2.31-.04-3.45.07-1.6.15-3.2.61-4.79.6-1.87-.01-3.74-.48-5.62-.57-2.03-.09-4.07.03-6.1.06-5.41.07-10.82.14-16.22.2-4.89.06-9.78.1-14.51.15-.12-1.02.03-2-.29-2.18-1.91-1.11-.59-2.03-.21-2.99-.4-1.96-.68-3.93-.72-5.91-.06-4.12.07-8.25.01-12.37-.08-4.98-.31-9.95-.38-14.93-.01-.74.7-1.49.68-2.22-.1-3.61-.39-7.22-.48-10.83-.03-1.28.8-2.71.45-3.81-.83-2.6-.73-5.23-.87-7.86-.05-.82.5-1.68.47-2.51-.07-1.76-.35-3.52-.54-5.28,0-.07.02-.15.03-.22.17-1.64.67-3.33.44-4.92-.51-3.58-.97-7.1.23-10.62.06-.17-.05-.39-.08-.59-.22-1.79-.47-3.58-.64-5.37-.02-.22.37-.45.47-.72.1-.28.13-.62.11-.92-.16-1.75-.37-3.5-.51-5.25-.09-1.17-.19-2.36-.13-3.53.06-1.09.35-2.17.53-3.26-.27-.84-.04-1.57.02-2.31.07-.74-.03-1.5-.05-2.25-.01-.42-.03-.85-.04-1.27,0-.84,0-1.69,0-2.53,0-.4.05-.81.03-1.21-.08-1.81-.25-3.62-.25-5.43,0-1.55.33-3.1.3-4.65-.03-1.83-.31-3.66-.43-5.49-.08-1.17-.13-2.35-.07-3.51.1-1.82.44-3.64.43-5.45-.03-2.81-.39-5.62-.39-8.43,0-4.24.19-8.49.26-12.73.04-2.26,0-4.53-.02-6.79-.07-7.32-.13-14.65-.21-21.97-.1-9.29-.1-18.59-.33-27.88-.22-8.82.51-17.66-.28-26.45-.42-4.69,1.75-9.04,1.27-13.72-.17-1.64,1.22-4.02.49-4.92-1.63-2,.24-3.82-.49-5.7-.5-1.28,0-2.97.07-4.47.07-1.66.16-3.33.22-4.99.04-1.16.11-2.32.03-3.47-.12-1.78-.53-3.55-.51-5.33.02-1.83.55-3.65.56-5.48,0-1.73-.56-3.46-.55-5.19.02-2.96.39-5.92.43-8.89.07-4.42.06-8.84-.09-13.26-.04-1.2-.74-2.38-1.3-4.05-.55.83-.82,1.05-.85,1.3-.36,2.85-.89,5.7-.98,8.56-.12,3.94.13,7.89.14,11.84,0,.94-.31,1.89-.48,2.84.27,1.97,1,4.41.12,5.91-.96,1.64-.16,2.21.53,3.28-1.71,1.16-1.68,2.36-.38,3.2-.24,2.31-.55,4.28-.62,6.26-.07,1.95.1,3.9.16,5.86.07,2.06.15,4.12.23,6.18.06.96.05,1.88.08,2.81.01.34.17.68.14,1.01-.2,1.77-.76,3.56-.58,5.28.24,2.22.38,4.36.12,6.61-.22,1.9.29,3.89.5,6.05-.15,1.56-.43,3.36-.46,5.17-.05,3.75.03,7.5.06,11.25.04,5.38.07,10.76.11,16.14.04,5.32.09,10.63.14,15.95.07,7.04.46,14.09.09,21.1-.21,3.95-.7,7.87-.57,11.86.22,6.73.11,13.46.24,20.2.05,2.42.55,4.85.53,7.27-.02,2.68-.42,5.35-.6,8.03-.11,1.65-.18,3.31-.15,4.96.03,1.82.3,3.65.25,5.46-.04,1.55-.55,3.09-.53,4.63.02,1.65.44,3.3.63,4.96.04.33-.02.81-.24,1.01-.9.84-1.03,1.52,0,2.42.28.25.04,1.09.04,1.66,0,.61.03,1.22-.02,1.82-.05.63-.21,1.25-.28,1.88-.05.44-.07.89-.03,1.33.15,1.61.47,3.21.45,4.82-.02,1.75-.52,3.5-.47,5.24.04,1.68.51,3.35.78,5.02.02.14-.02.3-.04.44-.3,1.8-1.33,3.91-.74,5.34.86,2.1-.43,3.24-.9,4.91.49,0,.95,0,1.69-.02-.37.73-.58,1.25-.88,1.73-.75,1.17-1.25,2.05-.34,3.68.57,1.03,1.19,2.8.42,4.5-.61,1.35-.71,2.98-.79,4.49-.06,1.16.25,2.35.34,3.13-.07,1.56-.1,2.59-.16,3.63-.08,1.42-.49,2.92-.18,4.25.51,2.2.26,4.35.35,6.52.07,1.45-.2,2.73-.37,4.11-.26,2.08-.04,4.22.01,6.33.07,2.86.19,5.72.25,8.57.05,2.61.1,5.21.04,7.82-.02.65-.82,1.38-.66,1.9.66,2.22,1.03,4.34-.29,6.45-.13.2-.09.74.06.85,1.72,1.23.5,2.31-.37,3.58,2.95,1.03-.46,2.24.42,3.34.65.7.98,1.63,1.62,2.25.7.68,1.89,1.67,2.49,1.46,1.2-.41,2.24-.61,3.55-.59,3.4.05,6.81-.38,10.21-.44,2.56-.04,5.12.29,7.68.28,2.5,0,5-.23,7.5-.33.78-.03,1.56.03,2.33.02.69,0,1.41-.15,2.08-.04,1.94.34,4.02-1.1,5.9.66.62.58,2.38,1.01,2.73.65,1.99-2.04,4.59-1.05,6.81-1.53,4.66-.99,9.48.79,14.23-.27.13-.03.29.05.44.08,1.65.28,3.44,1.1,4.93.73,2.63-.64,5.02.4,7.55.34,2.17-.05,4.36.94,6.55-.19.35-.18.89.05,1.33.01.85-.08,1.69-.24,2.53-.33,1.5-.17,3.65-1,4.37-.32,1.3,1.23,2.11.29,3.13.18.43-.05.98-.41,1.26-.26,3.54,1.98,6.98-.6,10.58.07.1.21.3.65.51,1.09.09-.21.18-.42.27-.64,1.18.17,2.36.52,3.53.48,3.31-.13,6.62-.54,9.93-.6,2.51-.05,5.03.4,7.55.39,2.09,0,4.18-.41,6.28-.54,1.93-.12,3.87-.14,5.81-.13,1.53,0,3.06.13,4.58.2,1.66.07,3.32.23,4.97.19,1.84-.04,3.67-.3,5.51-.38,1.29-.05,2.59.04,3.89.08,1.76.05,3.52.21,5.28.15,1.71-.06,3.57-.85,5.08-.39,2.03.63,3.78-.19,5.65-.13,1.73.05,3.47.05,5.2.14,1.77.1,3.53.43,5.29.39,1.86-.04,3.7-.59,5.55-.58,3.11.02,6.22.21,9.32.49,3.83.35,7.57-.79,11.46-.3,3.46.43,7.05-.24,10.59-.34,1.48-.04,2.97.11,4.46.19,1.79.09,3.59.28,5.38.23,1.54-.05,3.3-.95,4.54-.44,1.84.75,4.05-.6,5.64,1.27.38.45,1.6.34,2.4.23,2.24-.31,4.45-.74,7-1.18-.08-.13.19.29.5.78.84-.49,1.59-.94,2.34-1.38.4.51.79,1,1.19,1.52.9-.66,1.66-1.21,2.4-1.75.34.67.62,1.22.68,1.33,2.33-.02,4.25-.12,6.15-.05,2.81.11,5.62.46,8.43.48,4.59.04,9.19-.09,13.79-.14,5.06-.05,10.12-.09,15.18-.13,10.29-.07,20.57-.15,30.86-.17,1.35,0,2.7.55,4.04.48,1.74-.09,3.46-.76,5.19-.8,5.86-.11,11.72-.09,17.58-.04,1.8.02,3.6.32,5.4.45,1.94.15,3.87.27,5.81.36.26.01.53-.19.8-.25.63-.13,1.26-.27,1.89-.33.62-.06,1.24-.03,1.87-.03.7,0,1.4-.05,2.09.04,1.31.17,2.61.66,3.9.61,3.14-.13,6.26-.69,9.4-.71,3.79-.02,7.59.53,11.38.52,10.09-.02,20.18-.24,30.27-.32,7.2-.05,14.39-.03,21.59.02,1.62,0,3.24.35,4.86.33,3.1-.03,6.2-.21,9.3-.33,1.08-.04,2.16-.19,3.22-.14,1.6.09,3.19.48,4.78.44,2.04-.05,4.07-.62,6.1-.58,2.58.05,5.14.56,7.72.73,2.89.19,5.96-1.29,8.65,1.01.21.18,1.16-.26,1.57-.63,1.56-1.44,3.03-2.97,4.16-4.09-.25-1.32-.81-2.7-.5-2.95,1.65-1.3.66-2.1-.03-2.7.07-1.83.13-3.32.21-5.47-.15-1.59-.86-3.75-.4-5.61.69-2.77-.87-5.67.74-8.29.09-.15-.23-.51-.25-.78-.05-.74-.05-1.49-.06-2.23,0-.46.03-.93.01-1.39-.03-.72-.08-1.44-.12-2.17-.02-.37-.02-.75-.07-1.12-.22-1.65-.46-3.31-.68-4.96-.02-.13.1-.28.13-.43.3-1.78,1.13-3.69.72-5.29-.32-1.27.16-2.02.32-3.01.12-.75.15-1.57,0-2.31-.2-.98-.95-1.93-.89-2.86.13-2.05.7-4.07.93-6.11.18-1.58.23-3.2.17-4.79-.06-1.61-.41-3.21-.46-4.82-.04-1.35.15-2.71.27-4.06.17-1.84.46-3.67.53-5.51.05-1.2-.15-2.41-.29-3.61-.19-1.71-.49-3.41-.62-5.12-.09-1.14-.41-2.61.14-3.39,1.33-1.91-.2-3.83.47-5.78.51-1.46-.06-3.29-.2-4.96-.09-1.08-.44-2.17-.36-3.24.13-1.7.6-3.38.76-5.08.14-1.48.46-3.14-.05-4.42-.8-2.04-.1-3.92-.04-5.84.09-3.02.77-6.03.83-9.05Z"/><path d="M14.29,263.86s.01-.04.02-.05l-.06.05s.02,0,.04,0Z"/><path d="M13.66,273.96c-.02,5.32.16,10.64.21,15.96.05,5.48.04,10.95.08,16.43.03,4.38.1,8.76.15,13.14.04,3.14.14,6.28.08,9.42-.04,1.97-.34,3.94-.46,5.17.2,2.58.38,4.47.49,6.36.06,1.15.44,2.59-.09,3.4-.7,1.07-.53,1.64.02,2.54.2.34,0,.95-.1,1.43-.09.48-.44.96-.39,1.4.2,1.75.6,3.47.75,5.22.06.65-.5,1.33-.53,2.01-.05,1.02.11,2.06.19,3.09-.02.01-.04.02-.07.04.04,3.55.07,7.1.11,10.7.96.11,1.67-.4,1.67-1.64,0-4.84-.05-9.68-.04-14.52,0-1.27.21-2.53.22-3.8,0-1.06-.15-2.12-.23-3.18l.64-.06c-.26-.52-.72-1.02-.74-1.55-.09-1.66-.08-3.34.02-5,.1-1.6.49-3.2.51-4.8.03-2.19-.12-4.38-.28-6.56-.12-1.6-.45-3.19-.53-4.79-.04-.75.28-1.53.41-2.18-.02-2.13-.09-4.18-.05-6.23.03-1.68.33-3.36.24-5.03-.1-1.75-.54-3.49-.8-5.23-.04-.29.03-.59.06-.89.19-1.62.58-3.24.52-4.85-.06-1.74-.57-3.46-.79-5.2-.05-.39.3-.83.46-1.25.15-.4.44-.83.39-1.2-.22-1.59-.58-3.16-.83-4.74-.05-.34.21-.71.24-1.07.05-.52.05-1.05.04-1.58-.02-.57-.1-1.14-.11-1.71-.02-.67.01-1.34,0-2.01-.01-.44-.27-.97-.1-1.31.98-2.07.47-4.1.02-6.15-.06-.26.02-.56.05-.84.18-1.8.48-3.6.49-5.4,0-1.14-.41-2.29-.68-3.67.09,0-.24,0-.59,0-1.53,3.28-.62,6.73-.63,10.09Z"/><path d="M122.92,493.88c-.75,0-1.5.08-2.23,0-.57-.07-1.1-.52-1.66-.52-3.24,0-6.49.08-9.73.13-4.37.07-8.74.18-13.11.21-2.98.02-5.97-.09-8.95-.1-2.96,0-5.91.02-8.87.07-4.02.07-8.04.21-12.07.26-3.09.04-6.19,0-9.29,0-2.93,0-5.87.03-8.8-.02-1.63-.03-3.26-.3-4.89-.28-1.8.02-3.6.32-5.4.36-1.59.03-3.19-.21-4.79-.21-1.1,0-2.21.2-3.65.34-.18,1.13.9,1.42,2.12,1.48,1.11.05,2.22,0,3.33-.02.01.19.02.38.04.56,1.98-.25,3.95-.66,5.94-.69,1.69-.02,3.39.41,5.09.6.17.02.37-.26.57-.29.71-.1,1.42-.18,2.13-.19.38,0,.76.25,1.13.23.99-.04,1.97-.16,3.56-.31.6-1,1.82-.78,2.66.24,1.24-.25,2.12-.57,3-.58,1.62-.02,3.24.14,4.86.21.82.04,1.63.04,2.45.06.48.01.97.04,1.45.05.86,0,1.72,0,2.59,0,.4,0,.79-.03,1.19-.04.67-.02,1.35-.06,2.02-.06.46,0,.92.09,1.38.06,1.79-.08,3.57-.22,5.36-.29,1.15-.04,2.3-.05,3.44,0,1.04.05,2.07.2,3.43.34.99-.14,2.14-.3,3.15-.43.93.1,1.78.24,2.63.27.75.03,1.51-.06,2.27-.07.41,0,.82.1,1.22.06,1.76-.17,3.51-.4,5.27-.55.19-.02.38.49.63.56.48.14,1.02.27,1.49.18,1.45-.27,2.88-.66,4.34-.95.23-.05.52.23.79.28.96.16,1.93.27,2.89.4.03-.18.05-.37.08-.55.75.26,1.79.97,2.21.7,2.03-1.31,3.09.64,4.72.71,1.5-.27,3.01-.51,4.5-.82.67-.14,1.32-.36,1.96-.61.06-.02-.05-.76-.1-.76-.77-.05-1.55-.03-2.33-.02Z"/><path d="M494.7,462.51c2.03,5-1.39,10.26.74,15.25-1.45,4.86.13,9.98-1.39,15.42-1.06-2.65-1.92-.38-2.94-.37-2.59.02-5.17.06-7.76.09-5.13.07-10.26.08-15.39.29-1.04.04-2.04.88-3.06,1.36.13.28.27.56.4.84.82-.32,1.63-.64,2.45-.95.08.16.17.32.25.48,1.16-.09,2.33-.37,3.46-.24,2.27.26,4.51.84,6.78,1.1,1.53.18,3.1.1,4.64.01,1.79-.1,3.58-.33,5.37-.5,1.97-.19,4.01-.15,5.88-.68.99-.28,2.27-1.48,2.42-2.42.35-2.24.09-4.58.11-6.88.03-3.6.08-7.2.12-10.8.01-.96.02-1.93.03-2.89.03-1.58-.12-3.19.14-4.74.33-1.99-.32-3.55-2.26-4.39Z"/><path d="M16.03,489.05c-1.82-1.06-.51-2.75-.98-4.08-.55-1.54.03-3.48.04-5.24.03-3.27-.04-6.55,0-9.82.02-1.39.51-2.83.25-4.14-.46-2.39-.67-4.72-.07-7.1.03-.13-.23-.33-.51-.71-.78,1.02-1.49,1.94-2.06,2.69.17.84.35,1.51.43,2.2.09.84.11,1.68.14,2.52.01.45-.01.89-.04,1.34-.11,1.65-.3,3.3-.32,4.94-.02,1.86.2,3.72.16,5.58-.06,2.76-.27,5.52-.39,8.29-.04,1,.25,2.1-.05,2.99-.79,2.29-.44,3.81,1.69,5.33,1.29.92,2.4,1.26,3.87,1.63,1.7.43,3.1-.16,4.63-.11,1.74.05,3.48-.02,5.39-.04-3.31-3.18-4.02-3.3-7.47-1.25,0-.62-.01-1.13-.02-1.64-.15.17-.3.33-.45.5-1.18-.51-2.49-.84-3.48-1.6-.53-.41-.24-1.99-.76-2.29Z"/><path d="M13.35,225.92c-.07.28-.11.59-.09.88.2,2.25.42,4.5.66,6.9.36-.11.83-.24,1.29-.38-.5,1.16-1.59,2.3-.01,3.52.17.13-.19.88-.24,1.36-.07.74-.18,1.5-.09,2.22.06.54.38,1.06.6,1.58,1.78,0,1.1-1.16,1.08-2.15-.03-1.78-1.11-3.49-.14-5.37.39-.75.13-1.71-1.19-1.21,1.84-2.03.74-4.61,1.11-6.89.47-2.91-.28-6-.3-9.01-.02-3.38,0-6.78.33-10.14.42-4.36-1.52-8.82.54-13.11.1-.2-.29-.6-.35-.92-.09-.53-.17-1.09-.13-1.63.11-1.73.36-3.46.4-5.19.03-1.21-.23-2.42-.29-3.63-.03-.74.08-1.49.12-2.23.03-.48.14-.97.09-1.44-.1-.89-.28-1.78-.51-3.15-.37.42-1.18.91-1.2,1.43-.12,3.16-.26,6.33,0,9.47.21,2.59-.65,5.1-.09,7.74.36,1.7-.37,3.6-.38,5.42,0,1.93.28,3.85.42,5.78.01.14-.13.28-.14.42-.2,2.92-.51,5.83-.55,8.75-.02,1.69.72,3.41.56,5.07-.2,2-.99,3.94-1.51,5.91Z"/><path d="M496.96,181.33s.02-.04.03-.06l-.05.05s.02,0,.03,0Z"/><path d="M496.16,202.4c.02,2.98-.1,5.96-.2,8.94-.06,1.69-.33,3.37-.31,5.06.03,1.93.38,3.86.39,5.79.01,2.92-.56,5.91-.12,8.75.46,2.93-.61,5.87.44,8.72.05.12-.04.29-.07.44-.25,1.59-.51,3.17-.74,4.76-.03.2.1.43.16.65.23.85.45,1.7.89,3.33.46-1.26.96-2.05,1-2.86.08-1.79-.1-3.59-.12-5.38-.08-6.75-.13-13.5-.19-20.25-.02-2.6-.13-5.2-.06-7.8.05-1.95.46-3.89.48-5.83.03-3.28-.12-6.57-.19-9.85-.03-1.48-.05-2.95-.11-4.43-.07-1.96-.27-3.92-.21-5.88.05-1.62.43-3.23.59-4.85,0-.09-.53-.25-.83-.37-.37.88-1.01,1.76-1.01,2.65,0,6.14.17,12.28.21,18.42Z"/><path d="M496.61,365.57s.02.02.03.02c.01-.03.02-.06.04-.08l-.06.06Z"/><path d="M496.29,424.29s-.02.03-.03.05c0,0,.06.05.06.05-.01-.04-.02-.07-.04-.11Z"/><path d="M496.89,406.48c-.04-3.22-.08-6.44-.06-9.66.01-2.67.09-5.34.18-8,.06-1.67.2-3.33.31-5,.07-1.05.28-2.11.18-3.14-.15-1.64-.54-3.26-.75-4.89-.05-.39.29-.82.32-1.24.05-.72,0-1.45-.03-2.17-.02-.47-.15-.94-.11-1.41.13-1.56.34-3.11.43-4.67.01-.22-.44-.47-.7-.71-.38,1-.99,1.99-1.05,3.01-.11,1.72.06,3.48.27,5.2.42,3.5-1.24,6.95-.15,10.46.08.25-.15.58-.17.87-.12,1.66-.26,3.31-.33,4.97-.05,1.08.01,2.16.03,3.55,1.68.88.27,1.98-.62,3.02.65,1.05,2.2,1.92.31,3.12-.2.13.09,1.09.22,1.65.09.4.4.78.4,1.16-.02,1.04-.15,2.08-.24,3.12.3.03.6.05.9.08-1.57,1.13-1.87,2.27-.74,2.96.34,5.48-1.03,10.55.84,15.52.28-.58.77-1.16.77-1.73,0-5.36-.11-10.71-.17-16.07Z"/><path d="M497.44,13.89c-.3-.59-1.34-.96-2.11-1.14-.98-.22-2.02-.13-3.54-.2-.1.11-.61.66-1.24,1.32,4.54.9,6.15,2.49,6.02,6.48-.07,2.07-.12,4.15-.23,6.22-.08,1.39-.41,2.77-.37,4.15.1,4.11.31,8.21.5,12.32.06,1.3.22,2.6.33,3.9.29-.02.58-.04.87-.06.02-.55.06-1.1.07-1.64.02-1.72-.16-3.47.07-5.16.3-2.12.32-4.16,0-6.3-.23-1.61.34-3.34.58-5.01.29-2.03.77-4.04.86-6.07.07-1.56-.26-3.15-.57-4.7-.28-1.4-.62-2.84-1.26-4.1Z"/><path d="M397.25,493.25c-2.41.25-4.82.39-7.23.39-2.5,0-5.02-.49-7.51-.35-2.29.13-4.56,1.07-5.93.26-2.91.03-4.97.05-7.08.07-.02-.09-.03.37.1.41,1.07.35,2.17.85,3.27.87,6.22.12,12.45.13,18.67.14,4.94.01,9.89-.74,14.8.45,1.14.28,2.42.08,3.62-.02,1.13-.09,2.25-.33,3.68-.55-.04-.27-.13-.94-.23-1.62-3.12.03-6.25.07-10.07.11-1.54.39-3.92-.38-6.1-.15Z"/><path d="M413.42,493.26s0,.02,0,.03h0s-.01-.03-.01-.03Z"/><path d="M496.4,287.89c.16.09.32.18.48.27.39-.96,1.11-1.92,1.11-2.88.01-6.8-.04-13.61-.25-20.41-.1-3.24-.58-6.46-.9-9.69-.38.1-.74.19-.79.2.12,11.02.23,21.76.34,32.51Z"/><path d="M496.85,255.18s.04,0,.06-.01c0,0-.06-.05-.06-.05,0,.02,0,.05,0,.07Z"/><path d="M498.38,162.1c-.16-2.2-.36-4.4-.57-6.59-.08-.89-.21-1.77-.32-2.66-.27-.01-.54-.02-.81-.04-.28,1.16-.76,2.32-.79,3.49-.1,3.13.01,6.27,0,9.4,0,4.79-.07,9.59-.01,14.38,0,.39.68.77,1.07,1.15.29-2.06,1.19-4.31.65-6.13-.58-1.98.63-3.77-.39-5.87-.73-1.51.49-3.97.86-6,.07-.39.33-.77.3-1.15Z"/><path d="M496.99,181.27s-.03-.02-.04-.04c0,.03-.01.06-.01.09,0,0,.05-.05.05-.05Z"/><path d="M17.35,39.74c-.27,1.56-.39,3.1-.4,4.64-.02,4.63.02,9.26,0,13.89,0,1.38-.15,2.76-.11,4.13.09,2.94.52,5.9.28,8.81-.12,1.48.18,2.21,1.18,2.9.14-1.36.64-2.67.33-3.74-1.05-3.52-.16-6.88.36-10.29.05-.31-.24-.65-.27-.99-.06-.65-.1-1.32-.07-1.97.02-.42.36-.89.25-1.24-.61-1.98-.72-4.51-.2-6.07.1-.3.02-.67,0-1.01-.14-1.75-1.01-3.92-.28-5.16,1.24-2.12-.61-2.66-1.08-3.91Z"/><path d="M161.88,494.73c-1.14-2.26-2.27-1.7-3.16-.05-1.07-.62-1.96-1.5-2.95-1.62-1.63-.21-3.33.07-5,.15-1.75.09-2.71.96-2.64,3.09,1.77-2.31,3.74-1.75,5.76-.84.52.23,1.06.59,1.58.58,1-.03,2-.28,2.99-.43.91,0,2.08-.61,2.51-.27.91.71,1.45.66,2.28.05.27-.2.84,0,1.28.04,1.81.15,3.62.31,5.89.51-4.23-3.55-5.44-3.68-8.56-1.22Z"/><path d="M30.28,14.64s.05-.02.07-.04c0,0-.02-.01-.02-.02,0,0-.05.05-.05.06Z"/><path d="M55.08,14.4s0,.03.01.05l.06-.06s-.05,0-.07.01Z"/><path d="M52.19,13.96c-.92-1.67-2.13-.83-3.3.21-1.22-1.62-2.33-1.42-3.17-.06-.97-.35-2.37-1.05-2.5-.86-1.23,1.76-2.3.52-3.47.24-.9.26-1.76.13-2.61.04-.46-.05-.94-.1-1.38-.02-.48.09-1.21.6-1.36.45-1.7-1.65-2.77.03-4.04.64.41.3.8.76,1.24.82.46.07.98-.44,1.46-.42,2.9.11,5.79.35,8.68.46,2.17.08,4.35.15,6.51-.03,2.29-.19,4.56-.67,6.84-1.04-.55-2.8-1.83.16-2.89-.44Z"/><path d="M442.76,493.43c-1.19.03-2.15.32-1.64,1.41,1.45.07,2.35.16,3.25.14.67-.01,1.33-.16,1.99-.24,0,.08.02.17.02.25,1.86-.02,3.72-.04,6.01-.06.71-1.34,1.84-1,2.62.1,1.14-.3,2.55-.87,2.68-.66,1.17,1.91,2.2.6,3.2,0,.49.37.94.7,1.5,1.13.49-.73.87-1.31,1.31-1.97-1.18-.29-2.11-.73-3.03-.71-3.18.07-6.35.34-9.53.45-2.79.1-5.59.08-8.39.15Z"/><path d="M496.32,76.28c-.09,1.21-.65,2.77-.11,3.56,1.35,1.97-.1,3.95.52,5.83,1.02.27,1.44-.07,1.42-1.22-.07-4.34-.06-8.68-.09-13.02-.03-3.86-.08-7.71-.12-11.87-2.07,1.29-1.85,2.36-1.42,4.11.57,2.3-.75,4.88.28,7.32.08.18-.05.44-.07.67-.14,1.54-.3,3.08-.42,4.62Z"/><path d="M496.75,85.71s0-.03-.01-.04c-.02,0-.04,0-.06-.01,0,0,.06.05.07.06Z"/><path d="M16.2,132.65s0-.01,0-.02c-.01,0-.03,0-.04.01h.04Z"/><path d="M17.44,119.54c-.08-1.9.44-3.83.75-6.12-.61.26-1.5.39-1.56.7-.39,2.02-.8,4.08-.83,6.13-.02,1.63.54,3.26.74,4.9.04.35-.42.73-.54,1.13-.14.48-.26,1-.23,1.49.1,1.62.27,3.24.42,4.86.53-.17,1.45-.31,1.47-.54.13-1.25.34-2.65-.08-3.76-.66-1.77.12-2.71,1.34-3.57,1.01-.71,1.3-1.24.24-2.27-.8-.78-1.69-1.93-1.73-2.94Z"/><path d="M496.04,298.81c.28.56.93,1.25.78,1.64-.44,1.17-.32,2.11-.13,3.36.19,1.21-.77,2.64.34,3.96.08.09-.36.56-.48.88-.17.46-.4.97-.36,1.43.17,1.64,1.18,3.68.54,4.82-1.22,2.18.48,3.17,1.28,4.66-.08-7.73-.16-15.47-.25-23.65-.75,1.26-1.24,2.08-1.73,2.91Z"/><path d="M17.4,101.66c.35-.92.99-1.84,1.01-2.76.09-4.73.02-9.47,0-14.2-.02-3.12-.06-6.25-.1-9.37-.34-.05-.67-.1-1.01-.15-.1.66-.3,1.33-.28,1.99.05,1.58.23,3.16.28,4.75,0,.31-.43.6-.54.94-.1.31-.04.67-.02,1.01.07.98.16,1.95.25,2.93-.02.02-.05.04-.07.06.02,2.34.05,4.68.07,7.01-.09.75.26,1.56.26,2.36,0,.94-.32,1.87-.51,2.8.19.04.39.08.58.13-.28.71-.55,1.43-.83,2.14.3.12.6.25.9.37Z"/><path d="M496.32,424.39h0s-.06-.05-.06-.05c0,.03.01.06.02.1.02-.01.03-.03.05-.04,0,0,0,0,0,0Z"/><path d="M497.27,431.08c-.11-2.22-.64-4.43-1-6.64-.44.37-1.18.74-1.19,1.12-.07,3.45-.04,6.9.06,10.35.02.67.64,1.33.62,1.98-.06,1.85-.32,3.69-.47,5.53,0,.12.3.27.84.72.41-1.29.99-2.36,1.05-3.45.16-3.2.24-6.42.09-9.61Z"/><polygon points="496.26 424.34 496.26 424.34 496.26 424.34 496.26 424.34"/><path d="M345.46,494.25s.06-.01.09-.02c-.01-.02-.02-.04-.03-.05,0,0-.05.06-.06.07Z"/><path d="M362.04,493.6c-1.07-.15-2.21.18-3.88.36-.7.93-1.85.39-2.92-.85-1.24,2.01-2.38,1.17-3.6-.2-1.03,2.16-2.22,1.36-2.85.76-1.4.25-2.32.41-3.23.57.2.3.38.76.6.79,1.63.19,3.27.32,4.9.38,3.16.13,6.33.3,9.5.25,1.89-.03,3.77-.43,5.64-.75.29-.05.55-.59.71-.95.04-.09-.49-.57-.53-.54-1.42.99-2.85.41-4.34.2Z"/><path d="M342.53,494.19c-.87-1.59-2.03-1.38-3.27-.1-.99-.19-1.93,0-2.88.1-.55.06-1.11-.07-1.67-.06-.55.01-1.09.13-1.64.13-.63,0-1.26-.04-1.88-.13-.4-.06-.79-.39-1.16-.36-1.08.06-2.15.25-3.22.38-.06-.23-.12-.45-.18-.67-.34.52-.68,1.04-1.29,1.96,1.77-.02,3.17-.04,4.57-.05,2.71,0,5.44-.2,8.13.08,2.65.28,5.13.3,7.41-1.25-.97-2.48-1.75.42-2.92-.04Z"/><path d="M345.52,494.18s-.05.03-.07.04c0,.01,0,.02.01.03,0,0,0,0,0,0h0s.06-.07.06-.07Z"/><path d="M186.59,494.55s.06-.01.09-.02c0-.02-.02-.04-.02-.05,0,0-.05.06-.06.07Z"/><path d="M199.46,493.55c-1.24,1.85-2.26.65-3.54-.33-.98,2.19-2.29.44-3.53.48-1.91.06-3.81.53-5.71.84.22.47.43,1.25.66,1.25,1.41.04,2.83-.17,4.25-.2,1.76-.04,3.53-.02,5.29.01,2.65.05,5.38.51,7.56-1.49-.06-.21-.11-.42-.17-.63-.86.26-1.73.51-2.51.74-.78-.24-2.16-.87-2.3-.67Z"/><path d="M498.32,139.07c-.06-5.33-.11-10.34-.16-15.34-.2-.06-.4-.12-.6-.18-.37.87-.98,1.71-1.05,2.6-.14,1.87-.2,3.79.08,5.62.36,2.35-.82,5.04,1.72,7.29Z"/><path d="M496.88,101.75s.04-.04.05-.05c0-.01-.02-.02-.03-.03-.01.03-.03.06-.04.1,0,0,.01-.01.02-.02Z"/><path d="M496.67,85.65s.05.05.07.07c0,0,0,0,0,0,0,0,0,0,0,0h0s-.07-.05-.07-.06Z"/><path d="M496.21,89.62c-.2.19.03.83.07,1.27.18,1.66.52,3.32.52,4.98,0,1.67-.38,3.34-.51,5.01-.02.25.37.53.6.8.43-1.11,1.07-2.2,1.2-3.35.23-1.91.38-3.9.06-5.77-.39-2.28.72-4.93-1.42-6.83-.2.33-.63.84-.55.95.76,1,1.09,1.9.02,2.95Z"/><path d="M17.76,23.8s0,0,0,0h0s-.03-.05-.04-.07c0,.04-.01.08-.02.13,0,0,.06-.06.06-.06Z"/><path d="M16.27,15.73c.22,2.42.33,4.3.6,6.15.09.64.54,1.23.85,1.85.31-1.65.54-3.32.99-4.93.36-1.29,1.01-2.5,1.63-3.97q-2.09-1.67-4.08.9Z"/><path d="M14.32,263.81s0-.06-.01-.09c-.01.05-.03.09-.04.14,0,0,.06-.05.06-.05Z"/><path d="M13.52,258.15c.14,1.87.51,3.72.78,5.57.33-1.03.67-2.06,1.02-3.17-.14-.49-.69-1.39-.44-1.77.73-1.11.63-1.98-.07-3-.15-.22.09-.7.11-1.06.11-1.84.21-3.67.27-5.51,0-.14-.26-.29-.43-.43-.45,1.19-1.12,2.36-1.26,3.58-.21,1.9-.13,3.86.02,5.78Z"/><path d="M14.76,248.79s.03-.06.04-.09c0,0-.06.06-.07.06,0,0,.02.02.03.03Z"/><path d="M427.34,493.69c0,.3,0,.61,0,.91,3.67.2,7.35.39,11.23.6.32-.47.81-1.16,1.54-2.21-4.59.9-8.81-.68-12.78.7Z"/><path d="M497.16,105.96c.07.07-.04.47-.17.62-.71.8-1.11,1.53-.05,2.42.23.19.15.85.1,1.27-.21,1.59-.49,3.17-.66,4.77-.02.16.51.38.8.57.71-1.42,1.49-2.64.76-4.56-.53-1.4.29-3.28.41-4.95.08-1.1.11-2.24-.11-3.31-.08-.4-.83-.66-1.31-.98-.12,1.39-1.22,2.83.23,4.16Z"/><path d="M496.88,101.75s-.02.02-.02.02c.02.01.04.03.06.04,0-.04,0-.07.01-.11,0,0,0,0,0,0,0,0,0,0,0,0,0,0-.03.03-.05.05Z"/><path d="M497.2,115.63s-.02,0-.02-.01c-.01.02-.02.05-.04.07l.06-.06Z"/><path d="M17.31,27.45c.16.18-.02.66-.04.99-.12,2.9-.25,5.8-.39,9.27,1.53-1.46,2.68-2.32,1.3-3.9-.17-.19.33-.87.35-1.33.03-.65-.11-1.32-.14-1.98-.02-.52.01-1.03.05-1.55.03-.49.32-1.25.11-1.42-1.04-.84-.51-1.49.01-2.3.59-.92.53-1.6-.83-1.39-.53,1.15-1.64,2.21-.42,3.6Z"/><path d="M17.73,23.85s.02-.03.03-.05l-.06.06s.02,0,.03,0Z"/><path d="M450.83,13.86s.05-.02.08-.03c0-.01-.01-.02-.02-.03l-.06.07Z"/><path d="M450.91,13.83c.04.06.07.14.11.15,4.09.13,8.17.26,12.26.34.59.01,1.19-.29,1.79-.44-.31-.33-.62-.66-.92-.99-3.52.04-7.04.07-10.56.11.02-.1.04-.21.06-.31-.91.39-1.82.77-2.73,1.16Z"/><path d="M67.66,15.21c.04-.34.08-.67.12-1.01-1.15-.27-2.29-.67-3.46-.78-.92-.08-1.88.19-3.15.35-.94-.06-2.08-.14-3.52-.24-.56.2-1.49.53-2.44.87,1.18.31,2.35.82,3.54.86,2.97.1,5.94-.02,8.91-.05Z"/><path d="M55.15,14.38s-.06.06-.06.06c.04-.02.08-.03.12-.04-.02,0-.04-.01-.06-.02Z"/><path d="M424.28,494.98s.37-.48,1.23-1.58c-3.07.03-5.46.08-7.86.07-1.4,0-2.8-.12-4.2-.18,1.04.71,2.07,1.42,2.6,1.77,2.92-.03,5.33-.06,8.23-.09Z"/><path d="M413.43,493.27s0,.02,0,.02c0,0,.02,0,.03,0-.01,0-.02-.01-.03-.02Z"/><path d="M131.62,493.46c-.91.37-1.45,1.62-2.16,2.48.15.11.3.22.45.33.61-.24,1.58-.85,1.79-.65,1.89,1.77,3.02-.44,4.78-.57-1.41-1.94-3.15-2.29-4.86-1.58Z"/><path d="M229.39,493.53c-2.98.03-5.87.06-9.2.1,4.37,2.66,6.54,2.59,9.2-.1Z"/><path d="M15.5,242.06s-.02-.03-.02-.05c-.01,0-.02,0-.03,0,0,0,.05.05.05.05Z"/><path d="M289.13,494.68s.02,0,.02,0c0,0,0-.01,0-.02l-.03.03Z"/><path d="M290.16,495.98c2.15-.02,4.29.1,6.44.08.43,0,.86-.37,1.3-.57-.05-.18-.11-.36-.17-.54-1.69.56-3.24-2.8-4.47-.62-1.79.15-2.95.25-4.1.35-.39.98-.06,1.31,1,1.3Z"/><path d="M469.51,14.11c2.71-.03,5.42-.06,8.14-.09-2.82-1.23-5.61-2.09-8.14.09Z"/><path d="M212.82,493.97c-.26.18-.84.29-1.02.13-1.93-1.69-2.45.08-3.38,1.19,2.93-.03,5.71-.06,8.76-.09-1.39-1.32-2.49-2.56-4.36-1.23Z"/><path d="M317.39,494.3c-1.83-.37-2.31.36-3.28,1.06,2.78.14,5.53.18,8.27.02.57-.03,1.09-.81,1.63-1.25-.22-.18-.45-.36-.67-.54-1.73,1.97-4.38,1.02-5.94.71Z"/><path d="M498.16,339.56l-.49-.23c-.41,1-1.42,2.59-1.12,2.88,1.33,1.33-.66,2.19-.19,3.22.45.99,1.02,1.92,1.54,2.88.12-.06.23-.12.35-.18-.03-2.86-.06-5.72-.09-8.58Z"/><path d="M138.57,493.52c-.18-.09-.68.19-.87.44-.13.18-.08.76.06.83,1.01.52,2.03,1.18,3.11,1.35,1.05.16,2.19-.21,3.41-.36-.46-.63-1.03-1.42-1.68-2.31-.8.59-1.45,1.07-2,1.48-.81-.59-1.39-1.08-2.04-1.42Z"/><path d="M488.27,13.22c-2.65-.38-5.3-.74-7.91.12.03.23.06.45.09.68,2.62-.03,5.24-.05,7.86-.08l-.04-.71Z"/><path d="M16.25,143c.25.72-.26,2.24.42,3.37.33-.3.81-.56.91-.92.11-.39-.26-.89-.24-1.33.1-1.62.33-3.22.36-4.84,0-.27-.67-.55-1.07-.82-.09,1.48-1,2.76-.39,4.54Z"/><path d="M16.63,138.46s0-.06,0-.09c0,0-.06.06-.06.06.02.01.03.02.05.03Z"/><path d="M16.7,146.44s-.02-.05-.04-.07c0,0-.02.01-.02.02l.06.05Z"/><path d="M15.04,416.97c-1.64-2.7.49-4.34,1.44-6.47-1.12.34-2.26.79-2.59,1.59-.67,1.61-1.4,3.48,1.15,4.89Z"/><path d="M14.9,430.5c-1.54-1.46-.26-2.66.52-4.48-4.08,1.55-1.43,4.69-2.4,6.78.89-.66,2.03-2.16,1.88-2.29Z"/><path d="M13.75,248.64c.16.17.63.06.98.06.23-2.2.47-4.4.7-6.6-1.64.85-2.84,5.3-1.68,6.54Z"/><path d="M15.44,242.01s0,.06,0,.09c.02-.01.04-.03.06-.04h0s0,0,0,0l-.05-.05Z"/><path d="M14.73,248.76h0s.07-.06.07-.06c-.02,0-.05,0-.07,0,0,.02,0,.04,0,.07,0,0,0,0,0,0Z"/><path d="M437.16,12.61c-1.42.26-2.47.76-3.35.54-2.12-.53-2.23-.6-3.21,1.7,2.06-1.16,4.77,1.3,6.55-2.25Z"/><path d="M497.07,336.13c-.3,1.01-.53,1.79-.76,2.57.41.06.82.12,1.24.19.27-2.21.54-4.41.87-7.11-1.88,1.6-3.14,2.82-1.35,4.35Z"/><path d="M285.5,13.09c-1.7.02-3.34.04-4.97.05.03.3.05.6.08.91,1.6-.43,3.64,2.54,4.89-.96Z"/><path d="M13.64,450.91c.55-.87,1.04-1.65,1.6-2.54-1.64-1.11-1.09-2.39.09-3.76-2.4.59-2.96,2.9-1.68,6.3Z"/><path d="M496.85,255.11h0l.06.05s-.03-.09-.05-.14c0,.03-.01.05-.02.08,0,0,0,0,0,0Z"/><path d="M497.07,249.43c-.5.93-.99,1.86-1.35,2.54.43,1.16.79,2.12,1.14,3.07.34-1.81.67-3.62,1.01-5.43-.27-.06-.53-.11-.8-.17Z"/><path d="M496.67,365.51s-.03,0-.04-.01c0,.03-.01.05-.02.07,0,0,.06-.06.06-.06Z"/><path d="M495.64,360.8c.02,1.51,0,2.93.09,4.33,0,.14.57.25.91.37.91-3.18.89-3.19-1-4.7Z"/><path d="M16.21,132.65s-.05-.01-.05-.01c.02.01.03.03.05.04,0-.01,0-.02,0-.03Z"/><path d="M16.62,138.35c.92-1.97,1.78-3.93-.41-5.67-.12,1.7-.27,3.39-.34,5.09,0,.18.47.39.74.58Z"/><path d="M16.64,138.37s-.02-.01-.03-.02c-.01.02-.02.05-.03.07,0,0,.06-.06.06-.06Z"/><path d="M497.08,116.95c-1.72,1.83.08,2.78.73,4.1.31-.19.55-.26.55-.34,0-1.36-1.4-2.73.06-4.07l-1.22-.91c0,.44.11.98-.11,1.22Z"/><path d="M497.2,115.63s-.06.06-.06.06c.02.02.04.03.06.05,0-.03,0-.07,0-.11Z"/><path d="M16.7,146.45s-.06-.06-.06-.06c0,.03.02.06.03.09.01-.01.02-.03.03-.04Z"/><path d="M18.14,151.27c-.59-1.93-1.03-3.36-1.47-4.79-1.6,1.77-1.35,3.05,1.47,4.79Z"/><path d="M186.66,494.48s-.06.03-.09.04c0,.01.01.02.02.03,0,0,0,0,0,0h0s.06-.07.06-.07Z"/><path d="M183.36,496.08c1.07-.52,2.14-1.04,3.22-1.56-.82-1.6-1.79-1.28-3.22,1.56Z"/><path d="M277.52,494.91c-.56-.58-1.11-1.16-2.08-2.18.02,1.46.02,2.13.04,3.7.97-.72,1.51-1.12,2.04-1.52Z"/><path d="M286.25,495.78c.77-.3,1.81-.7,2.85-1.1-1.19-.64-2.37-1.29-3.57-1.95.25,1.08.46,1.95.72,3.06Z"/><path d="M289.12,494.69s.05-.04.05-.04c-.02,0-.04.02-.06.03,0,0,.01,0,.02,0Z"/><path d="M447.7,14.68l3.11-.87c-.59-1.79-1.07-1.72-3.11.87Z"/><path d="M450.83,13.86s.06-.07.06-.07c-.02,0-.05.01-.07.02,0,.02.01.03.02.05Z"/><path d="M210.43,12.7c-.91,1.08-1.57,1.87-2.24,2.66.23.19.46.39.69.58.28-1.15,2.68-.55,1.54-3.24Z"/><path d="M16.04,389.25c-.3-.14-.6-.28-.89-.42-.48.94-.97,1.88-1.45,2.82.3.14.59.28.89.42.49-.94.97-1.89,1.46-2.83Z"/><path d="M17.35,108.98c.42-.89.85-1.79,1.27-2.68-.28-.14-.56-.29-.84-.43-.51.86-1.01,1.72-1.52,2.58.36.18.73.36,1.09.53Z"/><path d="M28.11,13.78c-.44.28-.9.53-1.34.8.5.27,1.01.75,1.5.72.68-.04,1.34-.44,2.01-.7-.06-1.94-1.05-1.52-2.16-.82Z"/><path d="M30.32,14.58s-.04.02-.05.02c0,.01,0,.02,0,.03h0s0,0,0,0c0,0,.05-.06.05-.06Z"/><path d="M26.69,14.62s.05-.03.08-.05c0,0-.02-.01-.03-.02,0,0-.05.06-.05.06Z"/><path d="M25.81,13.46c-.81.46-1.55,1.02-2.32,1.56l.36.68c.93-.37,1.87-.74,2.8-1.1-.31-.42-.8-1.16-.85-1.13Z"/><path d="M26.74,14.56s-.05.02-.08.03c0,.01.02.02.03.03,0,0,0,0,0,0,0,0,0,0,0,0l.05-.06Z"/></g></svg>