<svg width="30" height="30" viewBox="0 0 30 30" fill="none" xmlns="http://www.w3.org/2000/svg">
<path d="M22.9561 9.8584C23.4624 9.85841 23.9974 9.9188 24.5605 10.0391H24.5596C25.1359 10.1555 25.6742 10.3717 26.1729 10.6875H26.1719C26.6833 11.0079 27.0999 11.4643 27.4219 12.0527H27.4209C27.7475 12.6439 27.9062 13.4033 27.9062 14.3232V22.582C27.9061 22.651 27.8502 22.707 27.7812 22.707H25.417C25.3482 22.7069 25.2921 22.6509 25.292 22.582V21.1836C25.1903 21.3447 25.0693 21.5037 24.9287 21.6602L24.7021 21.8945C24.3754 22.2099 23.9588 22.4685 23.4561 22.6729C22.9463 22.8801 22.3415 22.9824 21.6445 22.9824C20.8408 22.9824 20.1102 22.833 19.4551 22.5332H19.4541C18.7973 22.227 18.2744 21.7826 17.8887 21.2012H17.8877C17.5048 20.6156 17.3175 19.9022 17.3174 19.0684C17.3174 18.3515 17.4548 17.7496 17.7393 17.2715L17.8496 17.0986C18.117 16.7072 18.4604 16.3911 18.8779 16.1504L19.0566 16.0518C19.4798 15.8293 19.9442 15.6584 20.4492 15.5381C21.0207 15.402 21.6033 15.2983 22.1963 15.2275L24.0088 15.0166L24.3271 14.9668C24.6184 14.9108 24.8313 14.8374 24.9717 14.751L25.0303 14.71C25.1588 14.6062 25.2275 14.4513 25.2275 14.2266V14.1699C25.2275 13.5724 25.0799 13.1057 24.7959 12.7578L24.666 12.6152C24.3036 12.2578 23.7518 12.0684 22.9883 12.0684C22.1908 12.0684 21.5785 12.2446 21.1377 12.584V12.585C20.687 12.9309 20.3818 13.3104 20.2139 13.7227C20.1908 13.7792 20.1299 13.8113 20.0703 13.7979L17.7949 13.2793C17.7601 13.2714 17.7301 13.2491 17.7129 13.2178C17.6957 13.1864 17.6931 13.1489 17.7051 13.1152C17.9808 12.3431 18.3851 11.7144 18.9209 11.2344L19.127 11.0596C19.5448 10.7234 20.0079 10.4621 20.5156 10.2754L20.7734 10.1875C21.4661 9.96774 22.194 9.8584 22.9561 9.8584ZM9.85742 5.875L9.89551 5.88086C9.93194 5.89243 9.96217 5.92071 9.97559 5.95801L15.9424 22.5391C15.9562 22.5773 15.9501 22.62 15.9268 22.6533C15.9034 22.6865 15.8658 22.7069 15.8252 22.707H13.1689C13.1158 22.7069 13.0682 22.6732 13.0508 22.623L11.5635 18.3184H5.2627L3.77344 22.623C3.75589 22.6732 3.7084 22.707 3.65527 22.707H1C0.959297 22.707 0.920868 22.6866 0.897461 22.6533C0.87428 22.6201 0.869083 22.5772 0.882812 22.5391L6.84961 5.95801L6.86816 5.92383C6.89132 5.89373 6.92743 5.87512 6.9668 5.875H9.85742ZM25.2354 16.7246C25.1398 16.772 25.0256 16.8159 24.8955 16.8555L24.8936 16.8564C24.6453 16.9282 24.3624 16.9913 24.0459 17.0459H24.0439C23.7306 17.0945 23.4252 17.1404 23.1279 17.1836H23.126C22.8294 17.2213 22.5811 17.2543 22.3818 17.2812H22.3809C22.0347 17.325 21.7116 17.3906 21.4121 17.4785L21.1201 17.5742C20.7537 17.7085 20.4642 17.8993 20.248 18.1455L20.249 18.1465C20.0469 18.3774 19.9395 18.6911 19.9395 19.1006C19.9395 19.6639 20.1451 20.0761 20.5498 20.3574H20.5488C20.9656 20.642 21.5036 20.7891 22.1709 20.7891C22.8236 20.789 23.3737 20.6601 23.8262 20.4082L23.8271 20.4072L23.9951 20.3086C24.3747 20.0692 24.6659 19.772 24.8721 19.418L24.958 19.2617C25.1436 18.8945 25.2353 18.5065 25.2354 18.0967V16.7246ZM6.07812 15.9629H10.75L8.41602 9.20605L6.07812 15.9629Z" fill="black" stroke="black" stroke-width="0.25" stroke-linejoin="round"/>
</svg>
