<svg width="30" height="30" viewBox="0 0 30 30" fill="none" xmlns="http://www.w3.org/2000/svg">
<path d="M22.9561 9.70996C23.4731 9.70997 24.0173 9.77193 24.5879 9.89355H24.5889C25.1824 10.0134 25.7366 10.2366 26.25 10.5615H26.251C26.7864 10.8969 27.2192 11.3737 27.5518 11.9814H27.5508C27.8932 12.6015 28.0547 13.388 28.0547 14.3232V22.582C28.0546 22.7328 27.932 22.8545 27.7812 22.8545H25.417C25.2664 22.8543 25.1446 22.7327 25.1445 22.582V21.6318C25.1097 21.6739 25.0764 21.7182 25.0391 21.7598L24.8057 22.001C24.4628 22.332 24.0291 22.6005 23.5127 22.8105C22.9809 23.0268 22.3554 23.1299 21.6445 23.1299C20.8223 23.1299 20.0703 22.9776 19.3936 22.668L19.3916 22.667C18.7112 22.3498 18.1661 21.8883 17.7646 21.2832L17.7637 21.2822C17.3619 20.6678 17.169 19.9248 17.1689 19.0684C17.1689 18.3332 17.3103 17.7027 17.6123 17.1953L17.7275 17.0146C18.0074 16.605 18.3671 16.2732 18.8037 16.0215L18.9873 15.9209C19.4225 15.6921 19.8988 15.5165 20.415 15.3936C20.9922 15.2561 21.5801 15.1515 22.1787 15.0801H22.1797L23.9902 14.8701L24.3008 14.8213C24.5811 14.7672 24.7739 14.6987 24.8936 14.625L24.9707 14.5635C25.0389 14.4922 25.079 14.3887 25.0791 14.2266V14.1699C25.0791 13.5156 24.8958 13.0459 24.5625 12.7217L24.5615 12.7207C24.2366 12.4002 23.7292 12.2158 22.9883 12.2158C22.3085 12.2158 21.7821 12.348 21.3887 12.5908L21.2275 12.7021C20.7928 13.0358 20.5065 13.3957 20.3506 13.7783C20.3001 13.9022 20.1675 13.9711 20.0371 13.9414L17.7617 13.4238C17.6857 13.4064 17.6205 13.3574 17.583 13.2891C17.5454 13.2206 17.5392 13.139 17.5654 13.0654C17.8482 12.2736 18.2654 11.6229 18.8223 11.124L19.0342 10.9443C19.5359 10.5406 20.1009 10.2411 20.7275 10.0469L20.9951 9.96777C21.6223 9.7958 22.2764 9.70996 22.9561 9.70996ZM9.85742 5.72656L9.94141 5.74023C10.0204 5.7657 10.085 5.82632 10.1143 5.90723L16.082 22.4893C16.1121 22.5729 16.099 22.6665 16.0479 22.7393C15.9967 22.8116 15.9138 22.8544 15.8252 22.8545H13.1689C13.0526 22.8544 12.9491 22.7809 12.9111 22.6709L11.459 18.4668H5.36914L3.91406 22.6709C3.87599 22.7809 3.77169 22.8545 3.65527 22.8545H1C0.91113 22.8545 0.827521 22.8119 0.776367 22.7393C0.725223 22.6665 0.71305 22.5729 0.743164 22.4893L6.70996 5.90723L6.75098 5.83398C6.80166 5.76799 6.88052 5.72668 6.9668 5.72656H9.85742ZM24.9385 16.9971L24.9346 16.998C24.68 17.0716 24.3918 17.1361 24.0713 17.1914L24.0664 17.1924C23.7527 17.2411 23.447 17.2868 23.1494 17.3301L23.1445 17.3311C22.8481 17.3688 22.6001 17.4009 22.4014 17.4277H22.3994C21.9469 17.4849 21.5371 17.5813 21.1699 17.7139C20.8236 17.8409 20.5565 18.0186 20.3594 18.2432L20.3604 18.2441C20.1875 18.4417 20.0879 18.7176 20.0879 19.1006C20.088 19.6211 20.2737 19.9851 20.6328 20.2354L20.7832 20.3281C21.1475 20.5319 21.6059 20.6406 22.1709 20.6406C22.8042 20.6406 23.328 20.5154 23.7539 20.2783H23.7549L23.916 20.1836C24.2774 19.9557 24.5511 19.6752 24.7441 19.3438V19.3428L24.8252 19.1953C25.0007 18.8483 25.0878 18.483 25.0879 18.0967V16.9463C25.0394 16.9637 24.9898 16.9815 24.9385 16.9971ZM6.28613 15.8154H10.542L8.41504 9.66016L6.28613 15.8154Z" stroke="black" stroke-width="0.546253" stroke-linejoin="round"/>
</svg>
