<svg width="30" height="30" viewBox="0 0 30 30" fill="none" xmlns="http://www.w3.org/2000/svg">
<path d="M15.2589 6.90723C14.9722 7.2139 14.6764 7.50544 14.3819 7.79297C14.045 8.12181 13.7102 8.44668 13.3926 8.7959L13.3936 8.79688C13.1236 9.09862 12.8501 9.47482 12.5518 9.84668C12.2695 10.1986 11.9661 10.5409 11.6436 10.7764C11.6077 10.906 11.5364 11.04 11.4483 11.168C11.3475 11.3144 11.2215 11.4646 11.0919 11.6084C10.9625 11.752 10.8259 11.8933 10.7071 12.0195C10.5914 12.1424 10.4931 12.2501 10.4258 12.3379C10.4242 12.342 10.4243 12.3464 10.4229 12.3496C10.4163 12.3646 10.4076 12.3817 10.3985 12.3984C10.3803 12.4319 10.3556 12.4728 10.3262 12.5195C10.2669 12.6138 10.184 12.7374 10.086 12.8799C9.88974 13.1652 9.62807 13.5323 9.35944 13.9072C8.93545 14.4989 8.49715 15.1057 8.25983 15.4531C8.33802 15.4316 8.42301 15.409 8.50787 15.3887C8.67714 15.3482 8.86503 15.3141 9.01373 15.3242C9.02405 15.3211 9.03782 15.318 9.05377 15.3135C9.08584 15.3044 9.13043 15.2921 9.18561 15.2773C9.29643 15.2477 9.45179 15.2073 9.63678 15.1592C10.0069 15.0629 10.4988 14.9359 11.0001 14.8076C11.9327 14.5689 12.9002 14.3228 13.1856 14.251C13.2069 14.2124 13.235 14.1677 13.2774 14.1309C13.2777 14.1289 13.278 14.127 13.2784 14.125C13.284 14.0929 13.2933 14.0503 13.3047 14.001C13.3277 13.902 13.3615 13.7665 13.4034 13.6084C13.4874 13.2916 13.6034 12.878 13.7217 12.4648C13.8401 12.0515 13.9617 11.6378 14.0577 11.3213C14.1056 11.1631 14.1469 11.0279 14.1788 10.9297C14.1946 10.8808 14.2088 10.8401 14.2198 10.8096C14.2252 10.7945 14.2298 10.7808 14.2344 10.7695C14.2376 10.7618 14.245 10.7444 14.2549 10.7295L14.2706 10.71L14.3174 10.6621C14.3092 10.6327 14.2979 10.5892 14.2979 10.542C14.2979 10.5305 14.2996 10.5189 14.3028 10.5078L14.6876 9.16016L14.7051 9.12402C14.7189 9.10393 14.7383 9.0883 14.7608 9.0791L14.7481 8.98828C14.7405 8.93502 14.7683 8.88246 14.8165 8.8584L14.8672 8.83203C14.865 8.81678 14.8644 8.80011 14.8614 8.78223C14.8537 8.73595 14.8438 8.6774 14.8438 8.61719C14.8439 8.28702 14.9738 7.93522 15.0831 7.61133C15.1665 7.36396 15.2377 7.12926 15.2589 6.90723ZM15.753 11.8232L15.7559 11.8223C15.757 11.8213 15.7569 11.8193 15.7579 11.8184C15.7562 11.82 15.7548 11.8217 15.753 11.8232ZM18.8145 20.3877C19.0362 20.1702 19.3355 19.8093 19.6719 19.3574C20.0846 18.8032 20.5461 18.1248 20.9776 17.4375C21.4093 16.7499 21.8103 16.0554 22.1026 15.4707C22.2487 15.1784 22.367 14.9154 22.4483 14.6953C22.531 14.4714 22.5704 14.304 22.5704 14.1992C22.5702 14.1974 22.5694 14.1907 22.5665 14.1777C22.5629 14.1619 22.5581 14.1413 22.5508 14.1172C22.5362 14.0687 22.5161 14.01 22.4942 13.9482C22.4589 13.8487 22.4178 13.7337 22.3946 13.6572L22.2667 13.5293C21.9738 13.757 21.6254 14.1648 21.2608 14.6875C20.8637 15.2568 20.4549 15.9501 20.088 16.666C19.7211 17.3818 19.3974 18.1178 19.1671 18.7705C18.9352 19.4275 18.8031 19.9874 18.8106 20.3564V20.3584L18.8145 20.3877ZM24.6934 13.9355C24.682 13.9805 24.6655 14.0358 24.6456 14.0996C24.6056 14.2277 24.5488 14.3966 24.4815 14.5947C24.3465 14.9921 24.1681 15.5136 23.9903 16.0889C23.6332 17.2445 23.2861 18.5986 23.3018 19.5869V19.5889C23.3019 19.6324 23.3207 19.7205 23.3526 19.8242C23.3703 19.8816 23.3912 19.9381 23.4102 19.9863L23.421 19.9834C25.2091 19.0439 26.2537 17.6742 27.4112 16.0137L27.918 15.2832C27.9872 15.1804 28.1034 15.1127 28.2208 15.0713C28.3414 15.0288 28.4795 15.0082 28.6104 15.0127C28.7399 15.0172 28.8744 15.0465 28.9805 15.1133C29.0908 15.1827 29.1705 15.2942 29.1719 15.4463H29.1729C29.1779 15.6143 29.1063 15.8286 28.9952 16.0605C28.8819 16.2971 28.7185 16.5703 28.5186 16.8633C28.1184 17.45 27.5666 18.1265 26.9659 18.7676C26.3652 19.4086 25.7117 20.0179 25.1075 20.4678C24.8054 20.6927 24.5125 20.8795 24.2432 21.0107C23.976 21.1409 23.7219 21.2216 23.4981 21.2217C22.7206 21.2217 22.2472 21.0854 21.9571 20.7588C21.814 20.5975 21.7238 20.3982 21.6592 20.1699C21.624 20.0452 21.5963 19.9089 21.5714 19.7627C21.3322 20.2048 21.0286 20.6706 20.6465 21.0527C20.1619 21.5373 19.5467 21.8954 18.7823 21.8955C18.3141 21.8955 17.889 21.7782 17.5792 21.5215C17.3051 21.2943 17.1327 20.9668 17.0938 20.5449L17.085 20.3584C17.0772 20.0097 17.176 19.5002 17.338 18.9287C17.5014 18.3519 17.733 17.6996 17.9971 17.0625C18.2612 16.4254 18.5591 15.8011 18.8565 15.2803C19.1393 14.7851 19.4284 14.3723 19.6934 14.1348C19.7291 13.9572 19.8491 13.7658 20.001 13.5859C20.1721 13.3834 20.3989 13.1756 20.6426 12.9893C20.8866 12.8027 21.1518 12.6347 21.4005 12.5127C21.6451 12.3927 21.8885 12.3097 22.086 12.3096C22.4517 12.3096 22.7863 12.3683 23.0821 12.5205C23.3707 12.6692 23.6131 12.9036 23.8126 13.2422C23.8368 13.2576 23.8812 13.2745 23.959 13.29C24.0319 13.3046 24.1509 13.3219 24.2442 13.3438C24.3439 13.3671 24.4545 13.4037 24.544 13.4746C24.6392 13.5501 24.7024 13.6585 24.713 13.8057L24.7139 13.8145L24.6934 13.9355ZM17.0508 6.5C17.0508 6.89717 16.9845 7.32887 16.8506 7.69727C16.8448 7.71324 16.8346 7.7271 16.8233 7.73926C16.8237 7.74318 16.8262 7.74696 16.8262 7.75098V7.81543C16.8262 7.95169 16.7929 8.13274 16.6475 8.23438C16.6593 8.26445 16.6651 8.29639 16.6651 8.3291C16.6651 8.3878 16.6561 8.45338 16.6485 8.50684C16.6401 8.56547 16.6339 8.61201 16.6339 8.64941C16.6339 8.68582 16.6175 8.7204 16.5899 8.74414L16.4571 8.85742L16.5098 8.92383C16.5275 8.94589 16.5371 8.9737 16.5372 9.00195C16.5372 9.05163 16.5258 9.12589 16.5098 9.20801C16.4932 9.29349 16.469 9.39874 16.4405 9.5166C16.3834 9.75254 16.306 10.0436 16.2237 10.3389C16.0593 10.9284 15.8739 11.5423 15.7921 11.7715C15.7877 11.7835 15.7809 11.7939 15.7735 11.8037C15.7699 11.8138 15.7653 11.8295 15.7589 11.8516C15.7514 11.8769 15.743 11.907 15.7335 11.9414C15.724 11.9756 15.7135 12.0138 15.7022 12.0527C15.6798 12.13 15.653 12.2151 15.6231 12.29C15.6025 12.3418 15.576 12.3983 15.543 12.4453V12.499C15.543 12.5208 15.5372 12.5426 15.5264 12.5615C15.4079 12.769 15.3149 13.0814 15.2305 13.4229C15.1484 13.7555 15.0733 14.1189 14.9922 14.3945C14.984 14.4225 14.9643 14.4438 14.9405 14.46C14.9399 14.4612 14.9399 14.4648 14.9385 14.4707C14.934 14.491 14.9327 14.5174 14.9327 14.5518C14.9327 14.5677 14.9298 14.5839 14.9239 14.5986C14.9138 14.6239 14.906 14.6632 14.8975 14.7197C14.8902 14.7689 14.8811 14.8417 14.8712 14.9014C14.8606 14.9644 14.8456 15.0341 14.8194 15.0967C14.8009 15.1409 14.7736 15.1862 14.7344 15.2246C14.7286 15.3068 14.7163 15.4027 14.6924 15.4912C14.6772 15.5478 14.6578 15.6045 14.6348 15.6553C14.6193 15.6894 14.5985 15.7234 14.5753 15.7549C14.5057 16.4173 14.2972 17.1145 14.0645 17.8008C13.8259 18.5045 13.5637 19.1934 13.3887 19.8457C13.3831 19.8668 13.372 19.8859 13.3565 19.9014L13.3292 19.9287C13.3352 20.1679 13.2854 20.4337 13.2081 20.707C13.1239 21.0044 13.0062 21.3229 12.8926 21.6396C12.6615 22.2844 12.449 22.9151 12.4942 23.4277L12.4932 23.4609C12.4872 23.4937 12.4679 23.523 12.4395 23.542L12.3428 23.6064C12.3223 23.62 12.2981 23.6279 12.2735 23.6279H11.793C11.5898 23.6279 11.3687 23.5101 11.1983 23.3652C11.0388 23.2297 10.8966 23.047 10.8458 22.8613L10.838 22.8535C10.8145 22.8301 10.8018 22.7978 10.8018 22.7646V22.668C10.8019 22.6185 10.8133 22.5439 10.8292 22.4609C10.8458 22.3743 10.869 22.2679 10.8975 22.1494C10.9547 21.9121 11.0327 21.6221 11.1153 21.3379C11.1978 21.054 11.2855 20.7738 11.3633 20.5557C11.4021 20.4469 11.4396 20.3517 11.4727 20.2783C11.4882 20.244 11.5034 20.2121 11.5186 20.1855C11.5068 20.1419 11.5069 20.1009 11.5069 20.0703C11.5069 20.0163 11.5277 19.9394 11.5489 19.8711C11.572 19.7965 11.6033 19.7093 11.6358 19.624C11.6919 19.4768 11.7556 19.3276 11.794 19.2451C11.7763 19.009 11.8327 18.7187 11.92 18.4141C12.0128 18.0902 12.1453 17.7332 12.2774 17.3828C12.4102 17.0306 12.5428 16.685 12.6407 16.375C12.731 16.0891 12.7844 15.8468 12.7881 15.666C11.2868 16.0351 9.81339 16.2869 8.28619 16.5674L8.28424 16.5684C8.23069 16.5773 8.13802 16.586 8.03912 16.5957C7.93695 16.6057 7.82111 16.6172 7.71198 16.6328C7.60147 16.6486 7.50457 16.6672 7.43756 16.6895C7.41196 16.698 7.39545 16.7065 7.3858 16.7119C7.3822 16.7218 7.37816 16.7315 7.37213 16.7402C7.22959 16.9461 7.09466 17.161 6.95807 17.3779C6.82209 17.5939 6.6842 17.8125 6.53815 18.0234C6.52814 18.0379 6.5151 18.0505 6.50006 18.0596C6.51253 18.052 6.51653 18.046 6.50885 18.0547C6.50374 18.0605 6.49587 18.0699 6.48541 18.084C6.4645 18.1121 6.43641 18.1528 6.4024 18.2051C6.33461 18.3094 6.2455 18.4547 6.14166 18.6289C5.93389 18.9775 5.6698 19.4384 5.40533 19.9072C4.87461 20.8481 4.34889 21.8123 4.27155 21.9824C4.26288 22.0015 4.24921 22.0177 4.23248 22.0303L4.15729 22.0859C4.15791 22.1931 4.1295 22.3065 4.08112 22.4033C4.03603 22.4935 3.9681 22.5844 3.87799 22.6436L3.78033 22.6904C3.76759 22.6947 3.75373 22.6973 3.7403 22.6973H3.45221C3.40003 22.6973 3.3533 22.6647 3.33502 22.6162L3.24811 22.6309C3.23013 22.6339 3.21159 22.6336 3.1944 22.6289L3.14752 22.6045C3.06159 22.5329 2.95437 22.4756 2.83112 22.4033C2.71472 22.3351 2.58483 22.2533 2.48932 22.1387C2.47076 22.1163 2.461 22.0877 2.461 22.0586V22.0059L2.46002 21.916C2.46554 21.8216 2.48912 21.7145 2.52057 21.6074C2.56369 21.4607 2.62651 21.2996 2.69635 21.1455C2.7663 20.9912 2.84473 20.8406 2.92096 20.7158C2.98391 20.6128 3.05058 20.5189 3.11334 20.4551L3.16998 20.2324L3.1944 20.1846C3.20555 20.1707 3.2191 20.1585 3.23541 20.1504C3.22044 20.1579 3.22283 20.1622 3.24127 20.1357C3.25552 20.1153 3.27214 20.0877 3.28912 20.0557C3.32563 19.9867 3.351 19.928 3.37213 19.8857L3.37408 19.8818L3.69342 19.2988C4.01903 18.7124 4.36361 18.1201 4.72662 17.5635C6.54546 14.7235 9.01517 10.7451 11.4278 8.45117C11.4621 8.35644 11.5335 8.24245 11.6221 8.12207C11.7266 7.98013 11.8662 7.81369 12.0294 7.63379C12.356 7.27367 12.7831 6.85234 13.2286 6.45117C13.6738 6.05026 14.14 5.66686 14.545 5.38281C14.7473 5.24092 14.9371 5.12193 15.1026 5.03809C15.2635 4.95659 15.4184 4.89943 15.546 4.89941C15.8814 4.89941 16.268 5.039 16.5674 5.26562C16.8664 5.49198 17.1008 5.82429 17.0821 6.21777C17.0815 6.22904 17.0798 6.24027 17.0762 6.25098L17.0245 6.40332L17.044 6.46094C17.0482 6.47355 17.0508 6.48671 17.0508 6.5Z" fill="black" stroke="black" stroke-width="0.25" stroke-linejoin="round"/>
</svg>
