<svg width="30" height="30" viewBox="0 0 30 30" fill="none" xmlns="http://www.w3.org/2000/svg">
<path d="M15.9112 11.8584C15.912 11.8567 15.9128 11.8554 15.9131 11.8545V11.8525L15.9112 11.8584ZM15.9112 11.8584C15.9179 11.8461 15.9269 11.8348 15.9317 11.8213C16.0155 11.5867 16.2018 10.9685 16.3663 10.3789C16.4488 10.0829 16.5273 9.79007 16.585 9.55176C16.6138 9.43286 16.6381 9.32491 16.6553 9.23633C16.6711 9.15513 16.6856 9.06773 16.6856 9.00195C16.6855 8.9599 16.6747 8.91909 16.6563 8.88184L16.6866 8.85645L16.7266 8.81348C16.7619 8.76658 16.7813 8.70913 16.7813 8.64941C16.7813 8.62466 16.7862 8.58901 16.795 8.52734C16.8022 8.47687 16.8135 8.4003 16.8135 8.3291C16.8135 8.31593 16.8108 8.30239 16.8096 8.28906C16.9483 8.14287 16.9737 7.94256 16.9737 7.81543V7.7793C16.979 7.769 16.9853 7.75906 16.9893 7.74805C17.13 7.36108 17.1983 6.91194 17.1983 6.5L17.1846 6.41406L17.1807 6.40332L17.2169 6.29785L17.2305 6.22461L17.2247 6.05566C17.1824 5.67238 16.9377 5.35981 16.6573 5.14746C16.3356 4.90391 15.9179 4.75098 15.546 4.75098C15.3814 4.75099 15.2002 4.82318 15.0362 4.90625C14.862 4.99449 14.6654 5.11765 14.46 5.26172C14.0486 5.55028 13.5777 5.93762 13.1299 6.34082C12.6816 6.74455 12.2507 7.16964 11.92 7.53418C11.7549 7.71617 11.6116 7.88667 11.503 8.03418C11.4227 8.1432 11.3463 8.25977 11.3008 8.36914C8.88037 10.682 6.4101 14.6601 4.6026 17.4824C4.11513 18.2299 3.662 19.0402 3.2442 19.8115L3.48346 19.9414L3.24323 19.8115L3.23932 19.8193C3.22974 19.8385 3.21428 19.8721 3.20221 19.8975C3.18833 19.9267 3.17348 19.9576 3.15826 19.9863C3.14391 20.0134 3.13114 20.0334 3.12213 20.0469C3.09029 20.0719 3.06498 20.1044 3.04694 20.1406L3.02643 20.1963L2.97955 20.3799C2.91336 20.4537 2.85074 20.5474 2.79498 20.6387C2.71514 20.7694 2.63365 20.925 2.56158 21.084C2.48963 21.2427 2.42454 21.4104 2.37897 21.5654C2.33827 21.7039 2.30634 21.8589 2.31354 21.9951H2.31256V22.0586C2.31256 22.1224 2.3352 22.1843 2.37604 22.2334L2.46686 22.3281C2.56245 22.4149 2.66853 22.48 2.75592 22.5312C2.88743 22.6083 2.97907 22.6563 3.0528 22.7178C3.11386 22.7686 3.19417 22.7904 3.27252 22.7773L3.27448 22.7764C3.32304 22.8185 3.38477 22.8457 3.45221 22.8457H3.7403C3.76965 22.8457 3.79936 22.8403 3.82721 22.8311C4.01813 22.7673 4.14335 22.6089 4.21295 22.4697C4.25831 22.379 4.28885 22.2726 4.29987 22.1641L4.32135 22.1494L4.37018 22.1016C4.38439 22.0839 4.39683 22.0647 4.40631 22.0439C4.48029 21.8812 5.00171 20.9235 5.53424 19.9795C5.79843 19.5112 6.06174 19.0522 6.26862 18.7051C6.37228 18.5311 6.46114 18.3871 6.5274 18.2852C6.56062 18.2341 6.58639 18.1963 6.60455 18.1719C6.60943 18.1653 6.61277 18.1604 6.6153 18.1572C6.63192 18.1426 6.64754 18.1267 6.66022 18.1084C6.80843 17.8943 6.94738 17.6725 7.08307 17.457C7.21945 17.2404 7.35243 17.0292 7.49225 16.8271C7.54644 16.8102 7.62992 16.7941 7.73346 16.7793C7.83896 16.7642 7.95169 16.7532 8.05377 16.7432C8.14892 16.7338 8.24872 16.7239 8.30865 16.7139H8.31354C9.76912 16.4465 11.1827 16.2022 12.6192 15.8584C12.5962 15.9892 12.5577 16.1474 12.5001 16.3301C12.4036 16.6354 12.2724 16.9767 12.1387 17.3311C12.0068 17.6808 11.8721 18.0425 11.7774 18.373C11.6937 18.6652 11.6323 18.9618 11.6436 19.2178C11.603 19.3081 11.5466 19.4414 11.4971 19.5713C11.464 19.6582 11.4317 19.7492 11.4073 19.8281C11.3872 19.893 11.3594 19.9904 11.3594 20.0703C11.3594 20.0869 11.3602 20.12 11.3653 20.1621C11.3563 20.1801 11.3464 20.1981 11.338 20.2168C11.3024 20.2956 11.2631 20.3954 11.2237 20.5059C11.1445 20.7279 11.0557 21.0114 10.9727 21.2969C10.8896 21.5826 10.8118 21.8744 10.754 22.1143C10.7251 22.2341 10.7009 22.3438 10.6837 22.4336C10.6679 22.5156 10.6534 22.6027 10.6534 22.668V22.7646C10.6534 22.8257 10.6748 22.8839 10.712 22.9316C10.7799 23.1452 10.9396 23.3389 11.1026 23.4775C11.2848 23.6324 11.5391 23.7754 11.793 23.7754H12.2735C12.3273 23.7754 12.38 23.7593 12.4249 23.7295L12.5215 23.666C12.584 23.6244 12.6256 23.5592 12.6387 23.4873L12.6417 23.4141C12.6 22.9402 12.7982 22.3426 13.0323 21.6895C13.145 21.3751 13.2648 21.0504 13.3506 20.7471C13.4231 20.491 13.4738 20.2307 13.4766 19.9863C13.5017 19.9561 13.5221 19.9219 13.5323 19.8838C13.7057 19.2376 13.964 18.5587 14.2051 17.8477C14.4336 17.174 14.6423 16.4783 14.7178 15.8105C14.7387 15.7779 14.7564 15.7459 14.7696 15.7168C14.7968 15.6567 14.8183 15.5915 14.835 15.5293C14.8561 15.451 14.8692 15.3664 14.878 15.2871C14.9134 15.2424 14.9387 15.1959 14.9561 15.1543C14.989 15.0758 15.0066 14.9923 15.0176 14.9258C15.0275 14.8668 15.0381 14.7822 15.044 14.7422C15.0524 14.6858 15.0585 14.6611 15.0616 14.6533C15.0744 14.6211 15.0811 14.5864 15.0811 14.5518C15.0811 14.5455 15.0811 14.54 15.0811 14.5352C15.1051 14.5066 15.1241 14.4731 15.1348 14.4365C15.2169 14.1575 15.2943 13.782 15.3741 13.459C15.4587 13.1164 15.5473 12.8222 15.6544 12.6348C15.6779 12.5935 15.6905 12.5466 15.6905 12.499V12.4893C15.7211 12.4378 15.7444 12.3859 15.7608 12.3447C15.7934 12.263 15.822 12.1723 15.8448 12.0938C15.8563 12.054 15.8666 12.0155 15.876 11.9814C15.8857 11.9465 15.8934 11.9168 15.9005 11.8926C15.9039 11.8809 15.9069 11.8716 15.9092 11.8643C15.9099 11.8621 15.9107 11.86 15.9112 11.8584ZM22.2569 13.7295C22.003 13.9537 21.7023 14.3131 21.3819 14.7725C20.9895 15.3351 20.5843 16.0223 20.2198 16.7334C19.8552 17.4447 19.5344 18.175 19.3067 18.8203C19.1478 19.2706 19.0399 19.6658 18.9903 19.9795C19.155 19.7876 19.3464 19.548 19.5538 19.2695C19.9638 18.7189 20.4227 18.0431 20.8526 17.3584C21.2828 16.6733 21.6812 15.9833 21.9708 15.4043C22.1156 15.1146 22.2309 14.8567 22.3096 14.6436C22.3708 14.4779 22.4033 14.3544 22.4161 14.2705L22.4219 14.21C22.4206 14.2044 22.4169 14.1889 22.4083 14.1602C22.3948 14.1154 22.3763 14.0595 22.3546 13.998C22.3266 13.9192 22.2919 13.8184 22.2657 13.7383L22.2569 13.7295ZM14.9971 7.39355C14.8267 7.56509 14.6552 7.73267 14.4854 7.89844C14.1483 8.22756 13.8169 8.54936 13.503 8.89453L13.504 8.89551C13.2372 9.19368 12.972 9.55935 12.6671 9.93945C12.3958 10.2775 12.0963 10.6188 11.7725 10.8652C11.7268 11.0013 11.6519 11.1334 11.5704 11.252C11.4642 11.4062 11.3325 11.5614 11.2012 11.707C11.0703 11.8523 10.9318 11.9965 10.8145 12.1211C10.7066 12.2357 10.6192 12.3324 10.5577 12.4102H10.5587C10.5498 12.4301 10.5395 12.4502 10.5294 12.4688C10.5089 12.5064 10.4815 12.5505 10.4512 12.5986C10.3902 12.6955 10.3064 12.8209 10.2081 12.9639C10.011 13.2504 9.74905 13.6184 9.48053 13.9932C9.16581 14.4324 8.84627 14.8754 8.60651 15.2148C8.73293 15.1892 8.86987 15.1718 8.99323 15.1758C8.99954 15.174 9.00671 15.1729 9.01373 15.1709C9.04674 15.1616 9.09219 15.1496 9.14752 15.1348C9.25889 15.1049 9.41454 15.0638 9.59967 15.0156C9.97011 14.9193 10.4616 14.7924 10.963 14.6641C11.838 14.4401 12.7441 14.2101 13.0889 14.123C13.1033 14.1021 13.121 14.081 13.1407 14.0596C13.1463 14.032 13.1525 14.0009 13.1602 13.9678C13.1837 13.8665 13.2188 13.7299 13.2608 13.5713C13.3452 13.253 13.4606 12.8377 13.5792 12.4238C13.6977 12.0099 13.8198 11.5957 13.9161 11.2783C13.9641 11.12 14.0058 10.9843 14.0381 10.8848C14.0542 10.8353 14.0684 10.7924 14.0801 10.7598C14.0859 10.7436 14.0919 10.7271 14.0977 10.7129C14.1006 10.7059 14.1129 10.676 14.1319 10.6475L14.1573 10.6152C14.154 10.5927 14.1505 10.568 14.1505 10.542C14.1505 10.5167 14.1533 10.4911 14.1602 10.4668L14.546 9.12012L14.584 9.03906C14.5893 9.03145 14.5966 9.02555 14.6026 9.01855L14.6016 9.00879C14.5876 8.9103 14.6305 8.81609 14.7071 8.75684C14.7011 8.7169 14.6954 8.66787 14.6954 8.61719C14.6954 8.25673 14.8367 7.87696 14.9424 7.56348C14.9621 7.50529 14.9798 7.4485 14.9971 7.39355ZM15.8477 11.9365C15.8503 11.9343 15.8536 11.9334 15.8555 11.9316C15.8583 11.9291 15.8599 11.9253 15.8624 11.9229C15.8575 11.9276 15.8529 11.9322 15.8477 11.9365ZM24.8614 13.8145C24.8614 13.8708 24.847 13.932 24.837 13.9717C24.8246 14.0204 24.8074 14.0787 24.7872 14.1436C24.7466 14.2736 24.6893 14.444 24.6221 14.6416C24.487 15.0395 24.309 15.5597 24.1319 16.1328C23.7746 17.2891 23.4351 18.6221 23.4503 19.584V19.5928C23.4505 19.5961 23.4514 19.6015 23.4522 19.6074C23.4538 19.6195 23.4561 19.6349 23.46 19.6533C23.4676 19.6888 23.4788 19.7303 23.4922 19.7744C25.1616 18.8553 26.1643 17.5439 27.2891 15.9307L27.7969 15.1982C27.8912 15.0598 28.04 14.9781 28.1719 14.9316C28.311 14.8826 28.4677 14.8591 28.6163 14.8643C28.7614 14.8693 28.924 14.902 29.0596 14.9873C29.2046 15.0786 29.3166 15.2332 29.3194 15.4424H29.3204C29.3264 15.648 29.2417 15.8886 29.129 16.124C29.0113 16.3697 28.8431 16.6496 28.6407 16.9463C28.2352 17.5407 27.6783 18.2236 27.0733 18.8691C26.4687 19.5143 25.8088 20.1302 25.1954 20.5869C24.8889 20.8151 24.5888 21.008 24.3087 21.1445C24.0326 21.279 23.7544 21.3691 23.4981 21.3691C22.711 21.3691 22.1802 21.2334 21.8458 20.8564C21.6827 20.6725 21.5847 20.4506 21.5167 20.21C21.5133 20.1981 21.5101 20.1859 21.5069 20.1738C21.2976 20.5167 21.0486 20.8606 20.752 21.1572C20.2489 21.6603 19.5977 22.0429 18.7823 22.043C18.2917 22.043 17.8297 21.9209 17.4854 21.6357C17.1334 21.344 16.9366 20.9089 16.9366 20.3584H16.9376C16.9299 19.9864 17.0333 19.4607 17.1954 18.8887C17.3607 18.3053 17.5944 17.6474 17.8604 17.0059C18.1262 16.3646 18.4265 15.7344 18.7276 15.207C18.9997 14.7305 19.2859 14.3147 19.5596 14.0566C19.6133 13.8567 19.7446 13.6597 19.8878 13.4902C20.0675 13.2775 20.3029 13.0622 20.5528 12.8711C20.8031 12.6797 21.0763 12.5068 21.335 12.3799C21.5855 12.257 21.8538 12.1622 22.086 12.1621C22.4668 12.1621 22.8264 12.2224 23.1495 12.3887C23.4545 12.5457 23.7085 12.7885 23.9161 13.127C23.9307 13.1314 23.9539 13.1376 23.9883 13.1445C24.0437 13.1556 24.1852 13.1777 24.2774 13.1992C24.3837 13.2241 24.5213 13.2669 24.6368 13.3584C24.7644 13.4597 24.8479 13.6066 24.8614 13.7949V13.8145Z" stroke="black" stroke-width="0.546253" stroke-linejoin="round"/>
</svg>
