<svg width="31" height="30" viewBox="0 0 31 30" fill="none" xmlns="http://www.w3.org/2000/svg">
<path d="M25.352 16.4141C24.4982 16.7433 23.8237 17.0633 23.3227 17.373L23.1039 17.5156C22.5452 17.8979 22.1889 18.2474 22.0043 18.5596L21.8852 18.8047C21.7854 19.0403 21.7407 19.249 21.7407 19.4326C21.7407 19.8466 21.8631 20.1132 22.0688 20.2832C22.2844 20.4614 22.6382 20.5732 23.1772 20.5732C23.6992 20.5732 24.1039 20.4935 24.4047 20.3496C24.7107 20.1964 24.9861 20.037 25.2338 19.875L25.352 16.4141ZM6.50922 14.7822H10.3578L8.41742 9.86621L6.50922 14.7822ZM6.3266 22.1465C6.32648 22.2972 6.20393 22.4189 6.05316 22.4189H0.581482C0.430711 22.4189 0.308162 22.2972 0.308044 22.1465V21.4395C0.30805 21.3219 0.38402 21.2178 0.495544 21.1807L0.563904 21.1572L0.612732 21.1465C1.14851 21.0721 1.54764 20.9763 1.82172 20.8672C2.07036 20.7536 2.27973 20.5718 2.44965 20.3105L2.59222 20.0693C2.74019 19.7974 2.90454 19.4322 3.08539 18.9688L3.08734 18.9648L8.39984 5.96875L8.44183 5.89941C8.49284 5.83721 8.56956 5.79883 8.65277 5.79883H9.42816L9.50922 5.81152C9.58625 5.83556 9.65001 5.8932 9.68109 5.9707L14.9936 19.2637L15.0952 19.5039C15.3311 20.0392 15.5806 20.4211 15.8364 20.667C16.1245 20.9152 16.5867 21.0923 17.2621 21.166H17.3168C17.4676 21.1661 17.5903 21.2887 17.5903 21.4395V22.1465C17.5902 22.2972 17.4675 22.4189 17.3168 22.4189H10.7963C10.6456 22.4189 10.523 22.2972 10.5229 22.1465V21.4395C10.5229 21.3017 10.6255 21.1851 10.7621 21.168L11.6743 21.0547H11.6752L11.8373 21.0293C12.1864 20.9605 12.3349 20.8285 12.3911 20.6953L12.394 20.6885C12.4717 20.5151 12.4746 20.226 12.3256 19.7803L12.2514 19.5791L10.9428 16.2637H5.93304L4.7348 19.3496L4.73383 19.3535C4.59444 19.6984 4.51295 19.9825 4.48285 20.21C4.45279 20.4372 4.47685 20.5862 4.52094 20.6807C4.62686 20.8759 4.88351 21.043 5.42133 21.0996H5.42035L6.08148 21.168C6.2207 21.1824 6.32659 21.2995 6.3266 21.4395V22.1465ZM30.0395 21.7129C30.0395 21.8375 29.9551 21.9465 29.8344 21.9775L29.0405 22.1807C28.5621 22.3299 28.1687 22.4311 27.8647 22.4805L27.8657 22.4814C27.586 22.5436 27.3495 22.5791 27.1674 22.5791C26.7214 22.5791 26.336 22.48 26.0551 22.2393L26.0473 22.2334C25.8764 22.0756 25.7385 21.8961 25.6352 21.6963L25.5434 21.4902L25.5385 21.4756C25.5056 21.3701 25.4768 21.2716 25.4516 21.1807C24.8541 21.7338 24.2811 22.1244 23.7299 22.333L23.7241 22.3359C23.1328 22.5437 22.5246 22.6475 21.9008 22.6475C21.1935 22.6475 20.6032 22.5383 20.1528 22.2959L20.1411 22.2891C19.7221 22.0376 19.4077 21.7111 19.2143 21.3066C19.0314 20.9243 18.937 20.5343 18.937 20.1396C18.937 19.5549 19.1447 18.984 19.5346 18.4316L19.5356 18.4307L19.6996 18.2168C20.1095 17.7198 20.7008 17.2358 21.4594 16.7617L21.4614 16.7607L21.808 16.5566C22.6497 16.0822 23.7154 15.6182 25.0004 15.1631L25.395 15.0205L25.4584 12.9951C25.4716 12.5006 25.3196 12.1121 25.0131 11.8057L25.0092 11.8018C24.7066 11.4867 24.2824 11.3154 23.7016 11.3154C23.2376 11.3155 22.8394 11.465 22.4955 11.7676L22.4965 11.7686C22.1716 12.0674 21.9164 12.5482 21.7563 13.2471C21.7244 13.3955 21.6356 13.5154 21.5307 13.6104C21.424 13.7069 21.2864 13.7914 21.1284 13.8662L21.1225 13.8691C20.7997 14.0126 20.3838 14.0742 19.894 14.0742C19.6893 14.0742 19.5017 14.0568 19.3412 14.0127L19.1909 13.96C19.0526 13.8985 18.9498 13.7866 18.9077 13.6348C18.8697 13.498 18.8881 13.3545 18.9252 13.2246L18.935 13.1963L19.0405 12.96C19.3064 12.4155 19.7013 11.9208 20.2172 11.4746L20.4409 11.2891C20.8949 10.9286 21.3927 10.6259 21.934 10.3818L22.2084 10.2646C22.9513 9.94916 23.6929 9.78913 24.4311 9.78906C25.4611 9.78906 26.3287 10.0347 27.0102 10.5488L27.1401 10.6514C27.7681 11.1733 28.0649 11.8875 28.0336 12.7627L27.8051 19.6924C27.791 20.2531 27.9317 20.4905 28.0932 20.582C28.3563 20.7195 28.9031 20.8327 29.7856 20.8936C29.9288 20.9035 30.0395 21.0225 30.0395 21.166V21.7129Z" stroke="black" stroke-width="0.546253" stroke-linejoin="round"/>
</svg>
