<svg width="31" height="30" viewBox="0 0 31 30" fill="none" xmlns="http://www.w3.org/2000/svg">
<path d="M25.5014 16.1982C24.5475 16.556 23.7963 16.906 23.2446 17.2471L23.02 17.3926C22.4488 17.7833 22.0708 18.1515 21.8715 18.4932C21.6819 18.8443 21.5923 19.1567 21.5922 19.4326C21.5922 19.8776 21.7263 20.1909 21.975 20.3965C22.2283 20.6058 22.6215 20.7216 23.1772 20.7217C23.7129 20.7217 24.1419 20.6399 24.4692 20.4834C24.8073 20.3143 25.1101 20.1372 25.3803 19.9561L25.5082 16.1953L25.5014 16.1982ZM6.29242 14.9307H10.5766L8.41644 9.45996L6.29242 14.9307ZM6.17816 22.1465C6.17804 22.2154 6.12212 22.2715 6.05316 22.2715H0.581482C0.512519 22.2715 0.456599 22.2154 0.456482 22.1465V21.4395C0.456488 21.3857 0.491381 21.3383 0.542419 21.3213L0.610779 21.2979L0.632263 21.293L1.01605 21.2324C1.37322 21.1682 1.65909 21.0914 1.8764 21.0049C2.15601 20.8787 2.38922 20.6759 2.57465 20.3906L2.72211 20.1406C2.87481 19.8601 3.04241 19.4879 3.22406 19.0225L3.22504 19.0205L8.53656 6.02539L8.55609 5.99316C8.57944 5.96466 8.61467 5.94727 8.65277 5.94727H9.42816L9.46527 5.95312C9.50039 5.96415 9.53015 5.99005 9.54437 6.02539L14.8559 19.3184L14.9594 19.5625C15.2013 20.1115 15.4615 20.5144 15.7377 20.7783C16.0589 21.0558 16.5582 21.2395 17.2534 21.3145H17.3168C17.3858 21.3145 17.4418 21.3705 17.4418 21.4395V22.1465C17.4417 22.2154 17.3857 22.2714 17.3168 22.2715H10.7963C10.7274 22.2715 10.6714 22.2154 10.6713 22.1465V21.4395C10.6713 21.3764 10.7182 21.3232 10.7807 21.3154L11.6928 21.2012L11.8647 21.1748C12.2397 21.1009 12.4444 20.9508 12.5278 20.7529L12.5287 20.75L12.5649 20.6475C12.6236 20.4285 12.5981 20.1268 12.4653 19.7305L12.3901 19.5244L11.0444 16.1152H5.83246L4.59711 19.2959L4.59613 19.2979C4.45407 19.6493 4.36869 19.9462 4.33636 20.1904C4.30409 20.4343 4.32613 20.6155 4.38715 20.7451C4.5259 21.0077 4.84509 21.1881 5.4057 21.2471H5.40472L6.06586 21.3154C6.12957 21.322 6.17815 21.3754 6.17816 21.4395V22.1465ZM29.892 21.7129C29.892 21.7698 29.8533 21.8196 29.7983 21.834L28.9995 22.0391C28.5177 22.1894 28.128 22.2887 27.8325 22.3359L27.8334 22.3369C27.5571 22.3983 27.3332 22.4307 27.1674 22.4307C26.7408 22.4306 26.3957 22.336 26.1518 22.127L26.1479 22.124C25.9365 21.9289 25.7804 21.6996 25.6821 21.4375L25.6801 21.4316L25.7993 21.3936L25.6801 21.4307C25.619 21.235 25.574 21.0662 25.5414 20.9258H25.5082C24.8618 21.551 24.2519 21.9771 23.6782 22.1943L23.6752 22.1963V22.1953C23.0996 22.3976 22.5078 22.499 21.9008 22.499C21.2062 22.499 20.6436 22.3914 20.2231 22.165L20.2172 22.1621C19.8195 21.9234 19.5273 21.6169 19.3481 21.2422C19.1739 20.8777 19.0854 20.5097 19.0854 20.1396C19.0854 19.5918 19.2794 19.0506 19.6557 18.5176V18.5166L19.8139 18.3105C20.2098 17.8306 20.7873 17.3572 21.5385 16.8877V16.8867L21.8813 16.6855C22.7127 16.2169 23.7698 15.7563 25.0502 15.3027L25.5395 15.126L25.6059 13L25.603 12.8057C25.5766 12.3628 25.4144 11.9971 25.1186 11.7012L25.1166 11.6992C24.7803 11.3488 24.3137 11.168 23.7016 11.168C23.2 11.168 22.766 11.332 22.394 11.6611C22.0402 11.9876 21.7754 12.4997 21.6118 13.2139C21.5889 13.3231 21.5231 13.4185 21.4321 13.501C21.34 13.5843 21.2155 13.6611 21.0649 13.7324L21.062 13.7334C20.7659 13.8649 20.3735 13.9268 19.894 13.9268C19.6951 13.9267 19.5227 13.9089 19.3813 13.8701L19.2504 13.8242C19.1503 13.7796 19.0798 13.702 19.0502 13.5957C19.0225 13.496 19.0343 13.3828 19.0678 13.2656L19.0707 13.252L19.1879 13.2998L19.0717 13.252C19.3234 12.6386 19.7393 12.0839 20.3139 11.5869L20.5327 11.4053C21.051 10.9937 21.6283 10.6594 22.2641 10.4023C22.9915 10.0931 23.7141 9.93756 24.4311 9.9375C25.4388 9.9375 26.2733 10.1777 26.9233 10.6689H26.9223C27.5545 11.1356 27.8757 11.7814 27.8871 12.5928L27.8852 12.7568L27.6577 19.6875C27.6429 20.2669 27.786 20.5807 28.0248 20.7129C28.3185 20.8663 28.8943 20.9802 29.7758 21.041C29.8411 21.0458 29.892 21.1005 29.892 21.166V21.7129Z" fill="black" stroke="black" stroke-width="0.25" stroke-linejoin="round"/>
</svg>
