<svg width="14" height="14" viewBox="0 0 14 14" fill="none" xmlns="http://www.w3.org/2000/svg">
<path d="M10.2827 0.251193C10.2147 0.251193 10.149 0.275871 10.0962 0.328165L1.56359 8.84964C1.53074 8.88254 1.50729 8.92308 1.49556 8.96421L0.259849 13.4151C0.234043 13.5073 0.259849 13.606 0.326707 13.6736C0.377144 13.723 0.444002 13.75 0.512037 13.75C0.535496 13.75 0.560127 13.7465 0.585346 13.7394L5.02612 12.4762C5.05603 12.4679 5.08828 12.4491 5.12523 12.4162C5.16394 12.3816 5.16922 12.3774 5.14283 12.4051L5.15749 12.3898L5.17391 12.3774C5.20148 12.3557 5.20793 12.3498 5.19972 12.3575L13.6726 3.91286C13.7224 3.8635 13.75 3.79652 13.75 3.72601C13.75 3.65667 13.723 3.5891 13.6732 3.53916L10.4674 0.326384C10.4152 0.274089 10.3507 0.25 10.2821 0.25L10.2827 0.251193ZM10.281 0.885776L13.1148 3.72491L11.9272 4.90711L9.09454 2.07038L10.0781 1.08797L10.281 0.885776ZM8.72207 2.4417L9.97596 3.69734L3.40038 10.2864L2.13711 9.01783L8.51916 2.64448L8.72207 2.4417ZM10.3478 4.07042L11.5536 5.27729L4.9604 11.8528L3.7722 10.6594L10.146 4.27376L10.3478 4.07042ZM1.88781 9.51374L4.45306 12.0909L0.890742 13.1032L1.75579 9.98794L1.88781 9.51374Z" fill="black" stroke="black" stroke-width="0.28125"/>
</svg>
